<svg xmlns="http://www.w3.org/2000/svg" viewBox="0 0 360 360"><g fill="none" stroke-width="2"><path stroke="#db7a9d" d="M343.75 103.54q.24.93-.01 1.67a1.35 1.32 84.5 0 1-.58.72q-1.6.95-3.33 1.7-1.9.84-.8 3.14" vector-effect="non-scaling-stroke"/><path stroke="#fbcacb" d="M339.03 110.77q-2.19-2.39-4.26-3.79-8.97-6.06-20.96-13.68-13.28-8.45-21.03-13.63-35.53-23.71-77.23-50.47-12.94-8.31-23.43-15.33-5.7-3.81-12.28-5.75" vector-effect="non-scaling-stroke"/><path stroke="#db9fc1" d="M339.03 110.77q3.9 5.28 4.86 11.92" vector-effect="non-scaling-stroke"/><path stroke="#f8dbe0" d="M343.89 122.69q-.78 4.72-1.4 7.05Q330.2 176.27 314 239.53a1.1 1.1 0 0 1-1.68.65L144.29 129.79" vector-effect="non-scaling-stroke"/><path stroke="#fbf4f3" d="M145.66 124.03c1.91 1.98 3.11.89 5.11.06a1.46 1.44 40.3 0 1 .95-.07q1.26.32 1.51 1.32" vector-effect="non-scaling-stroke"/><path stroke="#dbd7f3" d="m153.23 125.34 4.22 4.11" vector-effect="non-scaling-stroke"/><path stroke="#b5afe2" d="m157.45 129.45 97.83 63.76" vector-effect="non-scaling-stroke"/><path stroke="#b7a7d3" d="m255.28 193.21 45.4 29.31" vector-effect="non-scaling-stroke"/><path stroke="#a29ace" d="M300.68 222.52q2.08-.36 3.38-.95c2.06-.94 2.42-3.56 2.94-5.59q13.37-51.6 25.45-96.77 1.14-4.27-3.16-7.89" vector-effect="non-scaling-stroke"/><path stroke="#b7a7d3" d="m329.29 111.32-88.56-57.91" vector-effect="non-scaling-stroke"/><path stroke="#b5afe2" d="m240.73 53.41-53.88-34.97a3.43 3.39-18.8 0 0-.7-.34q-6-2.17-8.83 2.44" vector-effect="non-scaling-stroke"/><path stroke="#cdc6ee" d="m177.32 20.54-1.12 2.67" vector-effect="non-scaling-stroke"/><path stroke="#dbd7f3" d="m176.2 23.21-.74 2.21a.17.15-72.7 0 1-.19.11h-.01a.12.08-78 0 1-.05-.13l.51-2.87a.03.03 0 0 0-.03-.03l-.66-.1a.02.02 0 0 0-.02.02l-3.09 11.12" vector-effect="non-scaling-stroke"/><path stroke="#fbf4f3" d="M171.92 33.54q1.16-10.07 5.02-19.72a1.91 1.91 0 0 0-.99-2.45q-.52-.24-2.98.13" vector-effect="non-scaling-stroke"/><path stroke="#b04d94" d="m323.58 241.05-8.19 8.63a3.91 3.9 6.4 0 1-.78.62l-12.03 7.13" vector-effect="non-scaling-stroke"/><path stroke="#db9fc1" d="m302.58 257.43 13.07-8.95" vector-effect="non-scaling-stroke"/><path stroke="#d88bb2" d="M315.65 248.48q.53-.13 1.05-1.05a.41.41 0 0 0-.44-.61q-.35.07-.58.03a1.06 1.05-77.4 0 1-.82-1.3q11.45-44.67 19.57-76.77 1.24-4.88 1.89-7.69c2.04-8.85 4.2-17.06 6.67-27.53q1.42-6.06.9-10.87" vector-effect="non-scaling-stroke"/><path stroke="#f8dbe0" d="M315.65 248.48q-9.38-6.87-14.15-9.99-40.57-26.56-81.09-53.19c-2.88-1.89-7.78-5.5-11.95-7.9" vector-effect="non-scaling-stroke"/><path stroke="#f7e0e4" d="m208.46 177.4-65.74-43.34" vector-effect="non-scaling-stroke"/><path stroke="#7167c5" d="m240.73 53.41-2.01 9.25" vector-effect="non-scaling-stroke"/><path stroke="#8785e0" d="m238.72 62.66-7.47-5.13" vector-effect="non-scaling-stroke"/><path stroke="#8c8fe7" d="M231.25 57.53q-20.85-12.97-41.7-26.02c-4.69-2.93-9.01-1.45-9.89 4.23-.91 5.88-1.75 8.71-2.74 13.86q-4.54 23.51-8.9 44.26-.2.97-.87 3.14-.42 1.36-.47 3.33a4.78 4.44 54.2 0 1-.12.96q-2.45 10.38-3.34 16.9-.62 4.55 1.45 8.09 1.13 1.94 6.22 5.37 6.73 4.52 13.39 9.15" vector-effect="non-scaling-stroke"/><path stroke="#8785e0" d="M184.28 140.8q11.29 8.1 22.87 15.8 3.32 2.21 6.67 4.37 21.76 14.06 43.43 28.25" vector-effect="non-scaling-stroke"/><path stroke="#7167c5" d="m257.25 189.22-1.97 3.99" vector-effect="non-scaling-stroke"/><path stroke="#9597e6" d="M157.45 129.45q-1.43-4.35-1.07-6.05 8.31-39.56 16.32-79.18c.75-3.68 1.2-8.64 2.28-12.94" vector-effect="non-scaling-stroke"/><path stroke="#8785e0" d="m174.98 31.28-.03 1.98a.15.13-85.9 0 0 .12.16v.01a.16.15 7.3 0 0 .18-.13l2.07-12.76" vector-effect="non-scaling-stroke"/><path stroke="#adaef2" d="m174.98 31.28 1.22-8.07" vector-effect="non-scaling-stroke"/><path stroke="#5e52b1" d="M329.29 111.32q-.76 6.22-1.34 8.39-6.34 23.92-12.92 49.01c-1.88 7.16-5.04 18.05-7.12 27.07q-1.14 4.89-3.63 13.36-1.86 6.3-3.6 13.37" vector-effect="non-scaling-stroke"/><path stroke="#897ed1" d="M257.25 189.22q13.82 8.95 27.6 17.96c4.38 2.86 9.88 2.95 11.5-3.12q1.21-4.53 20.24-76.98 1.77-6.73 1.14-9.72-1.02-4.78-5.73-7.74-23.52-14.79-37.83-24.27-12.54-8.31-29.87-18.91-3.55-2.17-5.58-3.78" vector-effect="non-scaling-stroke"/><path stroke="#dadcf7" d="M171.92 33.54q-2.35 14.7-5.54 29.22-5.14 23.41-5.15 23.48-4.05 19.59-8 39.1" vector-effect="non-scaling-stroke"/><path stroke="#d09dc3" d="m302.58 257.43-103.63 68.18" vector-effect="non-scaling-stroke"/><path stroke="#f8dbe0" d="M198.95 325.61q-2.23.37-3.89 1.96a1.83 1.8 13.5 0 1-.7.42l-3.07.99" vector-effect="non-scaling-stroke"/><path stroke="#d2a4b1" d="m205.51 304.9.7.1" vector-effect="non-scaling-stroke"/><path stroke="#f8dbe0" d="M206.21 305q2.61 1.53 4.23.51 5.83-3.7 11.63-7.46 1.73-1.12 2.49-2.61a.77.76-53.4 0 0-.12-.85l-4.15-4.61" vector-effect="non-scaling-stroke"/><path stroke="#fbcacb" d="m220.29 289.98-17.82-11.92a3.04 3.03-45.1 0 0-3.38.01l-2.1 1.43" vector-effect="non-scaling-stroke"/><path stroke="#d2a4b1" d="M201.7 272.82q7.34-5.03 13.1-9.28 1.49-1.1.43-4.26" vector-effect="non-scaling-stroke"/><path stroke="#fac2cf" d="M215.23 259.28q.05-.26-.09-.55-.1-.21-.37-.41-7.22-5.26-14.79-9.59M206.52 243.94q-.28 1-.14 1.86" vector-effect="non-scaling-stroke"/><path stroke="#d2a4b1" d="M206.38 245.8q-.44 2.11.82 3.01 7.21 5.13 15.42 10.34a1.94 1.93 43.7 0 0 2.14-.04l13.3-9.28a1.63 1.63 0 0 0 .56-.7q.28-.68.21-1.4" vector-effect="non-scaling-stroke"/><path stroke="#fac2cf" d="M238.83 247.73q.36-1.71-.26-3.02a1.37 1.32 4.9 0 0-.48-.55q-5.96-4-13.28-9.21c-1.83-1.31-2.83-1.61-4.9-.21q-4.2 2.85-8.36 5.72" vector-effect="non-scaling-stroke"/><path stroke="#d2a4b1" d="M209.66 238.41q4.49-3.15 5.87-4.39.91-.82.4-2.74" vector-effect="non-scaling-stroke"/><path stroke="#fbcacb" d="M215.93 231.28q.07-1.42-1.36-2.33-5.22-3.35-10.46-6.83" vector-effect="non-scaling-stroke"/><path stroke="#d2a4b1" d="M207 219.52q6.42 4.66 13.23 8.73 2.43 1.45 3.55 1.06a2.67 2.3-67.7 0 0 .61-.31l11.62-8.13a1.38 1.35 78.1 0 0 .56-.88q.34-2-.59-4.03" vector-effect="non-scaling-stroke"/><path stroke="#fac2cf" d="m235.98 215.96-13.79-9.31a2.07 2.05-46.2 0 0-2.39.06l-12.93 9.62" vector-effect="non-scaling-stroke"/><path stroke="#e4ad9a" d="M201.49 215.47q4.85-2.84 9.6-6.42c3.19-2.4 5.15-3.33 3.36-7.32" vector-effect="non-scaling-stroke"/><path stroke="#fde1ba" d="M214.45 201.73q-1.19-1.42-3.48-2.58" vector-effect="non-scaling-stroke"/><path stroke="#643689" d="M320.28 256.46q-.62-.27-.67.55" vector-effect="non-scaling-stroke"/><path stroke="#8c55a6" d="m193.04 339.72 5.62-4.9a.27.26-81.1 0 0-.31-.43l-1.43.89a.42.41-36.8 0 1-.53-.07q-2.55-2.82-6.45-3.88" vector-effect="non-scaling-stroke"/><path stroke="#fbf4f3" d="M208.46 177.4q.92 7.13.3 13.99" vector-effect="non-scaling-stroke"/><path stroke="#f7e0e4" d="m208.76 191.39-71.65-46.9a.8.77-56.5 0 0-1.08.24l-.02.03a.8.77-56.7 0 0 .2 1.09l73.01 47.68" vector-effect="non-scaling-stroke"/><path stroke="#fbf4f3" d="M209.22 193.53q2.2 2.63 1.75 5.62" vector-effect="non-scaling-stroke"/><path stroke="#fce6be" d="m210.97 199.15-10.8-7.18a2.19 2.18-45.4 0 0-2.45.02q-5.49 3.76-11.51 7.7-1.9 1.23-1.08 2.58" vector-effect="non-scaling-stroke"/><path stroke="#e4b29e" d="M185.13 202.27q-.18 2.27.52 2.83 5.15 4.07 15.84 10.37" vector-effect="non-scaling-stroke"/><path stroke="#fbf4f3" d="M201.49 215.47q2.24-.2 5.38.86" vector-effect="non-scaling-stroke"/><path stroke="#f9c7d3" d="M206.87 216.33v1.22" vector-effect="non-scaling-stroke"/><path stroke="#d2a9b5" d="m206.87 217.55.13 1.97" vector-effect="non-scaling-stroke"/><path stroke="#fbf4f3" d="M207 219.52q-.79 1.66-2.89 2.6" vector-effect="non-scaling-stroke"/><path stroke="#fbcfcf" d="M204.11 222.12q-1.31-1.23-2.93-1.58a1.55 1.52-55.2 0 0-1.21.23q-9.78 6.73-12.49 8.94-1.58 1.28-.6 2.08" vector-effect="non-scaling-stroke"/><path stroke="#d2a9b5" d="M186.88 231.79q-.63 2.08.27 2.8 4.75 3.77 12.15 8.15 2.35 1.4 3.74.4 3.34-2.39 6.62-4.73" vector-effect="non-scaling-stroke"/><path stroke="#fbf4f3" d="M209.66 238.41q1.2.91 1.89 2.05" vector-effect="non-scaling-stroke"/><path stroke="#f9c7d3" d="m211.55 240.46-5.03 3.48" vector-effect="non-scaling-stroke"/><path stroke="#fbf4f3" d="M206.52 243.94q-3.07 3.67-6.54 4.79" vector-effect="non-scaling-stroke"/><path stroke="#f9c7d3" d="M199.98 248.73q-10.21 6.98-13.98 10.03-.75.6-.16 1.95" vector-effect="non-scaling-stroke"/><path stroke="#d2a9b5" d="M185.84 260.71q-.44 1.84.89 2.81 7.49 5.46 14.97 9.3" vector-effect="non-scaling-stroke"/><path stroke="#fbf4f3" d="M201.7 272.82q1.5-.56 1.91.52c.75 1.98-2.37 3.04-3.69 3.4a1.05 1.01 14.5 0 0-.48.27l-2.45 2.49" vector-effect="non-scaling-stroke"/><path stroke="#fbcfcf" d="M196.99 279.5q-4.34 3.12-8.82 6.18-2.36 1.61-1.12 3.67" vector-effect="non-scaling-stroke"/><path stroke="#d2a9b5" d="M187.05 289.35q-.38 2.78.66 3.46 8.49 5.61 16.72 11.58c.29.21.74.32 1.08.51" vector-effect="non-scaling-stroke"/><path stroke="#fbf4f3" d="M205.51 304.9c.78 1.32 2.23 1.08 3.36 1.26q2.31.36 3.21-.72a.17.17 0 0 1 .3.12q-.04.52.65.68a.21.21 0 0 1 .06.39q-2.88 1.62-5.41 4.82-.4.5-1.96 5.09c-2.11 6.17-9.08 9.35-14.43 12.44" vector-effect="non-scaling-stroke"/><path stroke="#f7e0e4" d="M191.29 328.98c-6.55 1.75-13.95 2.3-18.97-1.08Q98.65 278.23 21.93 227.58q-2.92-1.93-3.94-5.46a.78.65-58.3 0 1-.03-.21l-.29-4.75" vector-effect="non-scaling-stroke"/><path stroke="#a4a6f3" d="m231.25 57.53-2.02 5.57" vector-effect="non-scaling-stroke"/><path stroke="#888ae5" d="M229.23 63.1q-10-6.29-19.92-12.68c-3.03-1.95-5.73-3.33-8.72-1.55q-1.54.92-2.66 6.29-3 14.43-6.07 28.78" vector-effect="non-scaling-stroke"/><path stroke="#a4a6f3" d="M191.86 83.94q-4.74 21.99-9.19 44.03-1.35 6.66 2.59 11.95a.62.62 0 0 1-.21.92q-.18.1-.77-.04" vector-effect="non-scaling-stroke"/><path stroke="#d17691" d="M238.83 247.73q.15-1-.1-1.59a.67.67 0 0 0-.99-.28l-12.88 8.73a3.5 3.49-46 0 1-3.82.07q-5.09-3.2-14.06-9.43-.39-.27-.6.57" vector-effect="non-scaling-stroke"/><path stroke="#cc88b4" d="m198.95 325.61-9.01 5.72" vector-effect="non-scaling-stroke"/><path stroke="#b493c4" d="M189.94 331.33q-6.91 6.03-15.76 4.2" vector-effect="non-scaling-stroke"/><path stroke="#b29ad3" d="M174.18 335.53q-2.53-1.04-6.2-3.53Q106.4 290.19 18 231.5q-3.94-2.61-4.95-8.28" vector-effect="non-scaling-stroke"/><path stroke="#d17691" d="m235.98 215.96-13.05 9.29a2.36 2.36 0 0 1-2.62.09q-6.38-3.92-12.84-8.14-.39-.26-.6.35" vector-effect="non-scaling-stroke"/><path stroke="#cf8fa2" d="M220.46 292.22q.93 2.65-.73 3.76-6.05 4.06-11.88 8.38-.57.43-1.64.64" vector-effect="non-scaling-stroke"/><path stroke="#e69f65" d="m214.45 201.73-12.98 9.63a1.48 1.48 0 0 1-1.65.07l-14.69-9.16" vector-effect="non-scaling-stroke"/><path stroke="#f8b5bc" d="M220.29 289.98q.42 1.52.17 2.24" vector-effect="non-scaling-stroke"/><path stroke="#d27e8d" d="M220.46 292.22q-.14-1.26-1.1-1.2a.61.54-61.3 0 0-.3.11l-12.66 9.5a1.38 1.36-46.9 0 1-1.57.06l-17.78-11.34" vector-effect="non-scaling-stroke"/><path stroke="#f8dbe0" d="m208.76 191.39 77 50.44a.33.33 0 0 1 .13.4l-.09.26a.72.72 0 0 1-1.06.35l-75.52-49.31" vector-effect="non-scaling-stroke"/><path stroke="#d27e8d" d="M215.93 231.28q-.5-.62-1.73.18-6.36 4.18-11.97 8.47a2.11 2.1 42.5 0 1-2.42.1l-12.93-8.24" vector-effect="non-scaling-stroke"/><path stroke="#d17691" d="M215.23 259.28q-.51.04-.74.2-5.64 4.05-11.2 8.31c-1.77 1.35-2.91 1.13-4.64.05q-6.29-3.9-12.22-7.57a.35.34-56.3 0 0-.46.1q-.09.13-.13.34" vector-effect="non-scaling-stroke"/><path stroke="#8380de" d="M229.23 63.1c5.34 3.35 11.3 6.55 16.13 9.82q16.24 11.02 30.71 20 1.5.93 3.49 2.51a3.85 3.85 0 0 1 1.38 3.81l-.34 1.68a1.47 1.47 0 0 1-2.24.93Q258.4 88.79 254.7 86.54q-10.5-6.39-17.17-10.9c-7.65-5.17-16.88-10.56-24.03-15.36q-3.14-2.1-7.04-2.99-3.85-.87-5.15 2.71-4.89 13.53-8.72 25.64a.32.32 0 0 1-.63-.08l-.1-1.62" vector-effect="non-scaling-stroke"/><path stroke="#7167c5" d="M174.18 335.53q-.44 4.33-3.98 6.02" vector-effect="non-scaling-stroke"/><path stroke="#5c5ac0" d="m12.91 230.97-.02-1.5M12.86 226.21l.09-1.67" vector-effect="non-scaling-stroke"/><path stroke="#d2aad1" d="M182.57 45.16a.98.98 0 0 0-1.49.63l-9.11 44.12a.98.98 0 0 0 .43 1.03l7.07 4.46a.98.98 0 0 0 1.49-.63l9.1-44.13a.98.98 0 0 0-.43-1.03l-7.06-4.45" vector-effect="non-scaling-stroke"/><path stroke="#b2b7f9" d="m176.46 115.6 1.08-5.22a1.41 1.41 0 0 0-.63-1.47l-5.43-3.42a1.35 1.35 0 0 0-2.04.87l-.77 3.74a2.21 2.2 23 0 0 .92 2.27l5.53 3.77a.87.87 0 0 0 1.34-.54" vector-effect="non-scaling-stroke"/><path stroke="#625fb4" d="m235.83 160.74 16.24 10.73a2.59 2.57-52.9 0 0 3.38-.49q.73-.85 1.36-3.19 16.35-59.96 16.68-61.54.73-3.47-1.41-4.86-13.12-8.5-27.01-17.56c-6.44-4.2-16.63-10.31-24.72-15.81" vector-effect="non-scaling-stroke"/><path stroke="#7471cc" d="M220.35 68.02q-3.88-2.22-7.57-4.49c-1.9-1.16-4.61-2.32-5.33.67q-6.98 29.22-15.48 62.57-1.43 5.57 3.25 8.5 14.21 8.88 34.9 22.36.46.3 1.01.44a1.4 1.37 73.5 0 1 .66.37q1.67 1.64 4.04 2.3" vector-effect="non-scaling-stroke"/><path stroke="#373494" d="M220.35 68.02q-4.82.23-8.79-1.05a1.68 1.67 15.8 0 0-2.14 1.19q-6.65 26.67-13.61 55.67c-1.1 4.59-1.1 9.18 2.62 11.5q19.18 11.97 37.4 25.41" vector-effect="non-scaling-stroke"/><path stroke="#adaef2" d="M286.15 101.47q-.14 1.84 1.06 2.6 7.23 4.58 14.48 9.13.88.55 1.53.6 1.11.08 1.3-.77" vector-effect="non-scaling-stroke"/><path stroke="#cdcbf2" d="M304.52 113.03q1.23-1.36-.58-2.73-3.81-2.89-15.05-9.44-2.5-1.46-2.74.61" vector-effect="non-scaling-stroke"/><path stroke="#dadcf7" d="M304.52 113.03q-8.54-6.93-18.37-11.56" vector-effect="non-scaling-stroke"/><path stroke="#adaef2" d="M276.56 112.76q-1.75.44-3.03 5.07-13.04 47.07-15.02 53.31-1.02 3.25-2.03 6.97a2.2 2.15-41 0 0-.07.85q.26 2.3 2.03 3.42 8.31 5.29 25.68 16.08a1.19 1.18 34.4 0 0 1.57-.29q1.89-2.5.41-4.81" vector-effect="non-scaling-stroke"/><path stroke="#8badef" d="m286.1 193.36 1-.42" vector-effect="non-scaling-stroke"/><path stroke="#7471cc" d="M287.1 192.94q.1.91 1.11.74 1.71-.28 2.22-1.94 1.89-6.16 3.24-12.23.41-1.82-1.97-3.78" vector-effect="non-scaling-stroke"/><path stroke="#8badef" d="M291.7 175.73q-.72-.17-1-.52" vector-effect="non-scaling-stroke"/><path stroke="#adaef2" d="M290.7 175.21q1.19-1.3 1.84-3.04" vector-effect="non-scaling-stroke"/><path stroke="#8badef" d="M292.54 172.17q.8-.3.78-.89" vector-effect="non-scaling-stroke"/><path stroke="#7471cc" d="M293.32 171.28q1.94 2.58 3.36-2.17 1.62-5.39 3.17-10.86.44-1.52-1.4-3.36" vector-effect="non-scaling-stroke"/><path stroke="#adaef2" d="M298.45 154.89q2.63-2.78 3.31-5.62 1.48-6.25 2.87-12.53.56-2.52.8-4.91" vector-effect="non-scaling-stroke"/><path stroke="#8380de" d="M305.43 131.83q3.61-2.46-1.51-5.73-12.93-8.24-25.85-16.22a1.1 1.1 0 0 0-1.61.54q-.58 1.49.1 2.34" vector-effect="non-scaling-stroke"/><path stroke="#9092e3" d="m305.43 131.83-28.87-19.07" vector-effect="non-scaling-stroke"/><path stroke="#8282d2" d="M298.45 154.89q-.31-.44-1.14-.7" vector-effect="non-scaling-stroke"/><path stroke="#99bff5" d="m297.31 154.19-1.87-1.07" vector-effect="non-scaling-stroke"/><path stroke="#dadcf7" d="M295.44 153.12q.5-.1.51-.1a.72.71 33.1 0 0-.21-.98q-10.13-6.67-19.67-12.87-1.98-1.28-3.47-.12-1.56 1.23-.93 1.91" vector-effect="non-scaling-stroke"/><path stroke="#99bff5" d="M271.67 140.96Q270 147 268.07 153q-.91 2.84 1.78 4.42 4.78 2.81 22.69 14.75M290.7 175.21l-1.68-.45" vector-effect="non-scaling-stroke"/><path stroke="#dadcf7" d="M289.02 174.76q.44-.38.41-.55-.1-.68-.66-1.03-9.57-6.12-19.02-12.48-1.73-1.16-2.97-.95-1.65.28-1.45 2.5" vector-effect="non-scaling-stroke"/><path stroke="#99bff5" d="M265.33 162.25q-1.84 5.52-3.54 11.28-1.03 3.5 2.38 5.57 5.88 3.56 21.93 14.26" vector-effect="non-scaling-stroke"/><path stroke="#6082cf" d="M297.31 154.19q.55 2.45-.01 4.42-1.75 6.09-3.98 12.67" vector-effect="non-scaling-stroke"/><path stroke="#b9dcf5" d="M289.02 174.76q-1.07-.12-1.74-.56-9.32-6.08-18.67-12.08-1.99-1.28-3.28.13M295.44 153.12q-2.74-1.34-3.79-2.02-7.92-5.1-15.9-10.08-2.29-1.43-4.08-.06" vector-effect="non-scaling-stroke"/><path stroke="#6082cf" d="M291.7 175.73q-.46-.27-.73.15a.32.31 55.4 0 0-.04.24q.51 2.5.03 4.11-1.89 6.37-3.86 12.71" vector-effect="non-scaling-stroke"/><path stroke="#6177b6" d="m255.01 160.44 10.83-39.65" vector-effect="non-scaling-stroke"/><path stroke="#4543a5" d="m265.84 120.79 3.29-12.27a1.93 1.93 0 0 0-.84-2.15l-51.47-32.42a1.41 1.41 0 0 0-1.94.44q-.69 1.09-1.06 2.69-5.69 24.56-12.73 51.02c-1.3 4.9.83 5.55 4.86 8.05 14.8 9.19 21.66 13.23 33.49 21.16q5.89 3.95 13.23 8.16a.44.43 24.4 0 0 .63-.23l1.71-4.8" vector-effect="non-scaling-stroke"/><path stroke="#8298e0" d="m265.84 120.79-47.57-29.6a1.25 1.11-14.9 0 0-.26-.13c-4.37-1.38-5.81.95-6.75 5.14q-2.56 11.27-7.07 29.58a2.31 2.25 46.9 0 0-.02.99q.46 2.49 2.68 3.89 23.78 15.07 48.16 29.78" vector-effect="non-scaling-stroke"/><path stroke="#9092e3" d="M304.096 134.787a1.47 1.47 0 0 0-.478-2.023l-25.49-15.743a1.47 1.47 0 0 0-2.023.478l-.021.034a1.47 1.47 0 0 0 .478 2.023l25.49 15.743a1.47 1.47 0 0 0 2.023-.478l.021-.034" vector-effect="non-scaling-stroke"/><path stroke="#9597e6" d="m277.53 132.35-3.07-1.7a.47.47 0 0 0-.57.73q.83.9 2.64 2.07 11.09 7.17 21.46 13.69a.64.63-74 0 0 .97-.54q0-.03-.03-.45" vector-effect="non-scaling-stroke"/><path stroke="#acc6f4" d="m298.93 146.15 2-7.61a1.15 1.15 0 0 0-.5-1.27l-19.75-12.44a.76.76 0 0 0-1.13.43l-2.02 7.09" vector-effect="non-scaling-stroke"/><path stroke="#879de3" d="m298.93 146.15-21.4-13.8" vector-effect="non-scaling-stroke"/><path stroke="#e4b29e" d="M117.75 158.17q-.18 3.14.95 3.9 1.99 1.34 9.12 5.9c2.96 1.9 4.86 3.46 7.63 1.47q5.39-3.89 10.73-7.76 1.65-1.2 1.19-4.25" vector-effect="non-scaling-stroke"/><path stroke="#fce6be" d="M147.37 157.43q-6.36-4.04-12.89-7.81c-1.92-1.12-3.41-1.29-5.25-.15q-6.26 3.9-11.48 8.7" vector-effect="non-scaling-stroke"/><path stroke="#e69f65" d="M147.37 157.43q-6.3 4.78-11.79 8.91-2.6 1.95-5.51.08-5.7-3.67-12.32-8.25" vector-effect="non-scaling-stroke"/><path stroke="#e4b29e" d="M140.45 172.77q-.54 2.48.54 3.21 7.22 4.83 14.6 9.55a3.11 3.11 0 0 0 3.52-.12q4.85-3.57 10.14-7.44 2.16-1.58.97-4.97" vector-effect="non-scaling-stroke"/><path stroke="#fce6be" d="M170.22 173q.2-.83-.47-1.24-7.23-4.4-14.35-9.49a2.19 2.18-45.1 0 0-2.56.01q-5.67 4.11-11.21 7.85-1.92 1.3-1.18 2.64" vector-effect="non-scaling-stroke"/><path stroke="#e69f65" d="m170.22 173-12.66 8.93a1.64 1.63-63 0 1-.91.3q-1.42.03-3.46-1.42-2.56-1.82-12.74-8.04" vector-effect="non-scaling-stroke"/><path stroke="#e4b29e" d="M98.19 173.56q-.67 2.58 1.45 3.86 6.59 3.98 11.84 7.39a3.15 3.15 0 0 0 3.61-.13q4.55-3.46 11.43-8.15 1.43-.97 1.48-4.28" vector-effect="non-scaling-stroke"/><path stroke="#fce6be" d="m128 172.25-14.84-9.12a2.94 2.94 0 0 0-3.28.15q-5.23 3.89-11.15 8.19-.87.62-.54 2.09" vector-effect="non-scaling-stroke"/><path stroke="#e69f65" d="M128 172.25q-6.93 4.65-12.68 8.82-2.24 1.62-3.88.54-6.48-4.22-13.25-8.05" vector-effect="non-scaling-stroke"/><path stroke="#e4b29e" d="M120.14 187.45q-.33 2.06.94 2.97 4.51 3.26 13.62 9.16c2.31 1.5 3.68 1.41 5.82-.27q4.08-3.2 10.18-7.4a1.61 1.59 82.2 0 0 .6-.8q.44-1.26.04-2.83" vector-effect="non-scaling-stroke"/><path stroke="#fce6be" d="M151.34 188.28q.16-1.37-.86-2.02-7.84-4.92-14.99-9.82a2.33 2.33 0 0 0-2.69.04q-5.44 3.99-11.96 8.6-.96.68-.7 2.37" vector-effect="non-scaling-stroke"/><path stroke="#e69f65" d="M151.34 188.28q-.22-.3-.67-.26a.57.56 23.8 0 0-.32.12l-11.7 8.45a2.9 2.9 0 0 1-3.18.15q-6.84-4.04-14.5-9.46-.65-.46-.83.17" vector-effect="non-scaling-stroke"/><path stroke="#e4b29e" d="M162.34 187.05q-.5 2.11.36 3.29a.82.76 86.8 0 0 .25.24l13.97 8.87a3.29 3.28-46.2 0 0 3.65-.08q5.08-3.57 10.53-7.28 2.52-1.71 1.1-5.41" vector-effect="non-scaling-stroke"/><path stroke="#fce6be" d="m192.2 186.68-14.67-9.94a2.2 2.19 43.8 0 0-2.52.05q-5.67 4.16-11.75 8.19-1.74 1.14-.92 2.07" vector-effect="non-scaling-stroke"/><path stroke="#e69f65" d="m192.2 186.68-13.15 9.4a1.74 1.67 22.9 0 1-.81.31q-1.53.15-2.89-.72-6.49-4.13-13.01-8.62" vector-effect="non-scaling-stroke"/><path stroke="#e4b29e" d="M78.47 190.25q.29 1.09 1.39 1.9 4.77 3.55 11.16 7.86 2.03 1.37 3.94.94a2.25 2.16 19.7 0 0 .85-.38q.76-.55 11.26-8.01 2.43-1.72 1.65-4.51" vector-effect="non-scaling-stroke"/><path stroke="#fce6be" d="M108.72 188.05q-.11-.62-.45-.83-6.8-4.21-13.6-9.12a2.43 2.43 0 0 0-2.82-.03q-5.77 4.05-12.36 8.42-1.65 1.09-1.02 3.76" vector-effect="non-scaling-stroke"/><path stroke="#e69f65" d="m108.72 188.05-13.55 9.17a1.76 1.59-66.4 0 1-.51.23q-1.7.43-3.39-.71-9.23-6.19-11.74-7.81a.64.63 19.3 0 0-.98.47l-.08.85" vector-effect="non-scaling-stroke"/><path stroke="#e4b29e" d="M142.51 203.37q-.19 1.64 1.62 2.81 4.78 3.07 11.61 7.46a2.85 2.85 0 0 0 3.23-.1q2.9-2.12 11.62-8.46 1.43-1.03.87-2.92" vector-effect="non-scaling-stroke"/><path stroke="#fce6be" d="M171.46 202.16q.52-1.66-.46-2.25-6.54-3.91-13.24-8.31a2.04 2.02 42.6 0 0-2.36.09q-6.29 4.84-12.51 9.23-.98.68-.38 2.45" vector-effect="non-scaling-stroke"/><path stroke="#e69f65" d="M171.46 202.16q-.01-.3-.14-.39-.42-.28-.84.03-5.38 3.95-10.85 7.94-2.21 1.62-4.4.25-5.91-3.7-11.67-7.25-.46-.28-.9.05-.25.19-.15.58" vector-effect="non-scaling-stroke"/><path stroke="#e4b29e" d="M56.45 202.95q.38 3.31 2.12 4.47 11.11 7.38 14.98 9.77 2.03 1.25 3.53.18 11.19-7.98 12.65-8.91 1.86-1.19 1.33-3.75" vector-effect="non-scaling-stroke"/><path stroke="#fbcfcf" d="M91.06 204.71q.28-.56-.87-1.35-7.39-5.16-14.89-10.2-2.82-1.9-5.93.19-8.49 5.68-12.92 9.6" vector-effect="non-scaling-stroke"/><path stroke="#e48776" d="M91.06 204.71q-6.94 4.27-13.45 8.97c-1.67 1.21-2.69 1.53-4.42.4q-11.38-7.43-16.74-11.13" vector-effect="non-scaling-stroke"/><path stroke="#e4b29e" d="m100.83 202.71.71 3.52a1.19 1.18-79.4 0 0 .52.76q6.52 4.14 13.01 8.45 2.82 1.87 4.74 1.56a1.98 1.98 0 0 0 .9-.39l12.16-9.38a1.48 1.43-10.3 0 0 .49-.68q.4-1.14-.13-2.93" vector-effect="non-scaling-stroke"/><path stroke="#fce6be" d="M133.23 203.62q.29-.26-.45-1.03-.42-.44-.97-.76-7.31-4.31-14.1-9.14a1.87 1.86-44.4 0 0-2.14-.02l-14.74 10.04" vector-effect="non-scaling-stroke"/><path stroke="#e69f65" d="M133.23 203.62q-6.61 4.2-12.71 8.9-1.97 1.52-4.7-.09-6.92-4.08-14.99-9.72" vector-effect="non-scaling-stroke"/><path stroke="#e4b29e" d="M164.81 216.71q-.61 2.53 1.19 3.78 9.96 6.94 13.23 9 2.03 1.28 3.65.15 5.4-3.74 11.92-8.36 1.52-1.07.49-4.8" vector-effect="non-scaling-stroke"/><path stroke="#fce6be" d="M195.29 216.48q.09-.65-1.33-1.68-8.21-5.97-12.89-9.16a2.15 2.14-44.8 0 0-2.41 0q-7.39 5.04-12.6 8.42-2.01 1.3-1.25 2.65" vector-effect="non-scaling-stroke"/><path stroke="#e69f65" d="m195.29 216.48-13.52 9.37a2.81 2.8-45.4 0 1-3.17.03l-13.79-9.17" vector-effect="non-scaling-stroke"/><path stroke="#e4b29e" d="M124.61 218.8q-.58 1.79.22 2.38 14.74 10.97 30.43 20.58a3.09 3.08 42.4 0 0 3.45-.15q4.24-3.15 11.72-8.41 1.59-1.12 1.17-3.17" vector-effect="non-scaling-stroke"/><path stroke="#fce6be" d="M171.6 230.03c.25-.9-.04-1.69-.84-2.2-7.21-4.51-13.07-9.31-20.22-13.36q-2.86-1.62-9.44-6.44a2.09 2.09 0 0 0-2.41-.04q-3.36 2.29-13.09 9.09-1.41.99-.99 1.72" vector-effect="non-scaling-stroke"/><path stroke="#e69f65" d="M171.6 230.03q-.58-.56-1.57.06-6.57 4.11-12.48 8.59a1.56 1.49 27.4 0 1-1.03.3q-1.09-.09-2.61-1.08-8.71-5.66-13.06-8.64a.75.75 0 0 1 .01-1.24l14.32-9.7a.49.48-56.2 0 0-.17-.88l-.54-.11a2.21 2.17 34.5 0 0-1.58.28l-14.44 9.02a.96.94-54.6 0 1-.73.13q-1.72-.39-3.26-1.48-4.74-3.35-9.85-6.48" vector-effect="non-scaling-stroke"/><path stroke="#e4b29e" d="M83.21 220.9q-.31 2.71.73 3.42 13.04 8.85 13.12 8.9 2.21 1.52 4.39-.05 6.05-4.36 12.97-9.52 1.26-.94.44-3.42" vector-effect="non-scaling-stroke"/><path stroke="#fce6be" d="M114.86 220.23q-.21-.1-.65-.76a1.49 1.43 2 0 0-.41-.42l-14.78-10.09a2.53 2.52-44.6 0 0-2.84-.01q-5.53 3.71-11.72 8.52-2.56 2-1.25 3.43" vector-effect="non-scaling-stroke"/><path stroke="#e69f65" d="M114.86 220.23q-6.76 4.63-13.27 9.62-1.97 1.52-3.89.28-11.38-7.34-14.49-9.23" vector-effect="non-scaling-stroke"/><path stroke="#e4b29e" d="M105.86 235.89q-.87 2.16.47 3.05 45.06 29.95 46.86 31.17 2.3 1.55 4.46.01 6.67-4.79 11.65-8.32c1.44-1.02 1.57-2.09 1.34-3.73" vector-effect="non-scaling-stroke"/><path stroke="#fce6be" d="M170.64 258.07q-.24-.93-1.92-2.04-21.42-14.18-46.88-30.94a2.11 2.09 43.5 0 0-2.39.05q-3.58 2.62-12.86 9.47-1.25.93-.73 1.28" vector-effect="non-scaling-stroke"/><path stroke="#e69f65" d="M170.64 258.07q-6.73 4.01-12.95 8.65c-2 1.49-3.32.99-5.19-.23q-23.33-15.22-46.64-30.6" vector-effect="non-scaling-stroke"/><path stroke="#e4b29e" d="M162.89 245.07q-.36 2.06.72 2.82 1.56 1.1 11.95 7.78 2.23 1.44 4.06.75a2.69 2.65 16.3 0 0 .65-.35q4.22-3.08 11.33-8.48 2.14-1.63 1.2-4.03" vector-effect="non-scaling-stroke"/><path stroke="#fce6be" d="m192.8 243.56-13.32-9.29a2.19 2.19 0 0 0-2.54.03q-6.5 4.72-13.23 9.43-1.22.86-.82 1.34" vector-effect="non-scaling-stroke"/><path stroke="#e69f65" d="M192.8 243.56q-6.17 3.9-11.94 8.31c-1.84 1.42-3.21 1.97-5.22.75q-6.29-3.81-12.75-7.55" vector-effect="non-scaling-stroke"/><path stroke="#cfa2c7" d="M82.29 260.06q.13 1.48 2.4 3.01 7.82 5.3 38.35 26.98c5.17 3.67 6.92 1.1 10.86-2.8q1.49-1.47 4.16-3.47 4.1-3.06 8.85-7.38 1.49-1.34-.2-2.76" vector-effect="non-scaling-stroke"/><path stroke="#f9c7d3" d="M146.71 273.64q-.86-1.97-2.63-3.25" vector-effect="non-scaling-stroke"/><path stroke="#fbcfcf" d="m144.08 270.39-39.84-25.87a2.4 2.4 0 0 0-2.74.09q-8.9 6.62-17.92 13.21-1.16.85-1.29 2.24" vector-effect="non-scaling-stroke"/><path stroke="#fa9cab" d="M144.08 270.39q-6.36 5.45-12.78 10.67-6.02 4.9-12.61.27-8.83-6.19-24.9-15.32-2.65-1.5-5.64-2.36" vector-effect="non-scaling-stroke"/><path stroke="#d0779f" d="m88.15 263.65-5.86-3.59" vector-effect="non-scaling-stroke"/><path stroke="#ce6fa3" d="M88.15 263.65q17.61 11.93 35.35 23.62c2.13 1.4 4.09 1.18 6.16-.43q8.56-6.62 17.05-13.2" vector-effect="non-scaling-stroke"/><path stroke="#e4b29e" d="M162.99 273.15q-.58 2.61 1.54 4.05 6.84 4.63 13.85 9.38a2.82 2.81-45.8 0 0 3.21-.05q5.11-3.65 10.88-7.59 2.89-1.98 1.87-6.39" vector-effect="non-scaling-stroke"/><path stroke="#fce6be" d="m194.34 272.55-15.61-10.58a2.44 2.43-47 0 0-2.89.11q-5.76 4.55-11.88 9.16-1.69 1.27-.97 1.91" vector-effect="non-scaling-stroke"/><path stroke="#e69f65" d="M194.34 272.55q-6.84 4.81-12.96 9.63-2.09 1.64-4.57.01-6.79-4.48-13.82-9.04" vector-effect="non-scaling-stroke"/><path stroke="#99bff5" d="M272.44 151.04q-.74 1.63.38 3.41a1.74 1.7 88.8 0 0 .61.6l8.95 5.18a1.44 1.41-38.4 0 0 1.12.12q2.25-.72 1.98-2.32" vector-effect="non-scaling-stroke"/><path stroke="#b9dcf5" d="M285.48 158.03q-.01-1.52-.9-2.12-4.68-3.19-9.46-6.23a1.16 1.15-23.4 0 0-.46-.18q-2.13-.34-2.22 1.54" vector-effect="non-scaling-stroke"/><path stroke="#dadcf7" d="m285.48 158.03-13.04-6.99" vector-effect="non-scaling-stroke"/><path stroke="#fce6be" d="m134.1 160.02.92-1.66a.72.72 0 0 0-.29-.98l-4.51-2.49a3.48 1.49 28.9 0 0-3.77-.38l-.17.32a3.48 1.49 28.9 0 0 2.32 2.98l4.52 2.5a.72.72 0 0 0 .98-.29" vector-effect="non-scaling-stroke"/><path stroke="#99bff5" d="M266.18 172.51q-.96 2.41 1.15 3.92 3.19 2.28 9.34 5.31a1.48 1.43-37.4 0 0 .95.11q2.06-.44 1.99-2.09" vector-effect="non-scaling-stroke"/><path stroke="#b9dcf5" d="M279.61 179.76q.17-1.79-1.31-2.83-4.08-2.84-6.9-4.61-1.87-1.17-3.05-1.63c-1.42-.57-2.17.49-2.17 1.82" vector-effect="non-scaling-stroke"/><path stroke="#dadcf7" d="m279.61 179.76-13.43-7.25" vector-effect="non-scaling-stroke"/><path stroke="#fce6be" d="M152.48 171.46a.63.63 0 0 0-.16 1.14l3.68 2.31a2.78 2.77-45.8 0 0 3.04-.05l1.2-.82a.84.84 0 0 0-.02-1.41l-3.2-2.01a1.46 1.45 52.7 0 0-1.17-.16l-3.37 1M107.87 173.58q2.88 1.52 3.9 3.08a.68.67 53.3 0 0 1 .15q2.02-1.66 2.15-3.73a1.15 1.15 0 0 0-1.29-1.22l-5.57.68a.56.55 55.5 0 0-.19 1.04M129.871 186.35a3.48 2.44-175.4 0 0 3.273 2.712 3.48 2.44-175.4 0 0 3.665-2.153 3.48 2.44-175.4 0 0-3.273-2.711 3.48 2.44-175.4 0 0-3.665 2.153M175.48 185.76q.57 1.12 1.83 1.54a.43.43 0 0 1-.22.83l-2.96-.61a.6.6 0 0 0-.41 1.11q2.95 1.64 6.3 1.28a1.15 1.15 0 0 0 .66-1.98q-1.45-1.36-4.73-2.69a.37.37 0 0 0-.47.52" vector-effect="non-scaling-stroke"/><path stroke="#d2a4b1" d="M229.66 231.88q-.54 2.05.32 2.62 13.17 8.76 13.67 9.11 2.21 1.56 3.94.32 4.87-3.49 10.75-7.29 1.8-1.16 2.03-2.5.23-1.41-.33-3.39" vector-effect="non-scaling-stroke"/><path stroke="#fac2cf" d="m260.04 230.75-14.63-9.99a2.31 2.3-45.7 0 0-2.64.04l-12.62 9.09a.7.7 0 0 0-.14.14q-1.24 1.6-.35 1.85" vector-effect="non-scaling-stroke"/><path stroke="#d17691" d="m260.04 230.75-13.1 9.42a3.04 3.03 42.7 0 1-3.33.13l-13.95-8.42" vector-effect="non-scaling-stroke"/><path stroke="#d2a4b1" d="M252.93 246.53q-.53 2.65 1.2 3.84 7.27 4.97 15.66 11.01" vector-effect="non-scaling-stroke"/><path stroke="#f8dbe0" d="M269.79 261.38q2.25 2.11 5.62.27 3.81-2.09 11.47-7.52c2.79-1.97-.21-4.83-1.33-6.68" vector-effect="non-scaling-stroke"/><path stroke="#fbcacb" d="M285.55 247.45q-.12-1.05-1.5-1.97-2.97-1.98-11.75-7.87c-2.76-1.85-4.57-3.72-7.43-1.58q-4.73 3.53-10.99 7.83-1.88 1.3-.95 2.67" vector-effect="non-scaling-stroke"/><path stroke="#f8b5bc" d="m285.55 247.45-.07 2.07" vector-effect="non-scaling-stroke"/><path stroke="#d27e8d" d="M285.48 249.52q-.09-1.93-1.07-2.01a.51.48-58.1 0 0-.3.08c-4.55 3.2-8.86 5.93-12.49 8.73q-1.69 1.3-3.06.43-7.81-4.95-15.63-10.22" vector-effect="non-scaling-stroke"/><path stroke="#cf8fa2" d="M285.48 249.52q.46 1.8-1.37 3.1-7.2 5.12-14.32 8.76" vector-effect="non-scaling-stroke"/><path stroke="#d2a4b1" d="M230.9 261.51q-.37 2.45 2.08 4.27 7.39 5.49 15.97 11.07" vector-effect="non-scaling-stroke"/><path stroke="#f8dbe0" d="M248.95 276.85q1.09.75 3.24.84a2.21 2.2-61.1 0 0 1.3-.38l12.92-8.75a2.42 2.41-28.9 0 0 .86-2.97q-.82-1.86-3.02-3.54" vector-effect="non-scaling-stroke"/><path stroke="#fbcacb" d="M264.25 262.05q-.23-1.04-.71-1.37-8.09-5.55-16.08-11.26a2.51 2.51 0 0 0-2.93.01q-7.42 5.4-12.51 9.08-2.07 1.5-1.12 3" vector-effect="non-scaling-stroke"/><path stroke="#f8b5bc" d="M264.25 262.05q.05.38-.11.72" vector-effect="non-scaling-stroke"/><path stroke="#d27e8d" d="M264.14 262.77q-.56-.94-1.88-.02-6.25 4.35-12.09 8.75a3.18 3.17-46.9 0 1-3.64.13l-15.63-10.12" vector-effect="non-scaling-stroke"/><path stroke="#cf8fa2" d="M264.14 262.77q.59 2.34-.43 4.08a1.86 1.84-1.9 0 1-.55.58l-14.21 9.42" vector-effect="non-scaling-stroke"/><path stroke="#d2a4b1" d="M208.61 275.67q-.34 2.61.81 3.41 7.76 5.41 17.15 11.85" vector-effect="non-scaling-stroke"/><path stroke="#f8dbe0" d="M226.57 290.93q-.15.59 2.02.98 1.9.35 5.11-1.73 5.44-3.5 12.07-8.24a1.83 1.82 60.3 0 0 .6-2.22q-.83-1.85-3.4-3.25" vector-effect="non-scaling-stroke"/><path stroke="#fbcacb" d="M242.97 276.47q.07-.9-.44-1.22-9.81-6.12-16.27-10.55c-1.75-1.2-3.64-1.58-5.25-.43q-6.92 4.98-10.88 7.74-1.16.81-1.66 1.6-.84 1.34.14 2.06" vector-effect="non-scaling-stroke"/><path stroke="#f8b5bc" d="M242.97 276.47q.01.5-.32 1.02" vector-effect="non-scaling-stroke"/><path stroke="#d27e8d" d="M242.65 277.49q-.09-.89-.53-1.2-.45-.3-1.23.23-6.25 4.24-12.15 9.03-1.88 1.53-4.6-.2-7.63-4.82-15.53-9.68" vector-effect="non-scaling-stroke"/><path stroke="#cf8fa2" d="M242.65 277.49q.63 2.55-.73 3.68-6.14 5.1-15.35 9.76" vector-effect="non-scaling-stroke"/><path stroke="#fce6be" d="M95.73 187.43q-3-1.71-5.5-.35a1.76 1.76 0 0 0-.42 2.77q3.08 3.2 6 .06a1.74 1.43-52.4 0 0-.08-2.48M132.12 186.81q.71.46 1.45.34a.56.51-32.4 0 0 .26-.97q-.69-.42-1.54-.18a.47.44-35.1 0 0-.17.81M155.81 204.54q1.47-.06 3-2.47a1.5 1.49-57.8 0 0-.47-2.07q-1.76-1.1-2.76-1.06-.99.04-2.66 1.28a1.5 1.49 53.1 0 0-.3 2.11q1.73 2.27 3.19 2.21" vector-effect="non-scaling-stroke"/><path stroke="#fde1ba" d="M199.88 199.78a1.01.99-47 0 0-1.14.05l-1.59 1.19a.86.85 49.1 0 0-.09 1.29q2.17 2.18 5.15 3.21a.95.95 0 0 0 1.14-.43q.67-1.2 1.83-1.34a.3.3 0 0 0 .13-.55l-5.43-3.42" vector-effect="non-scaling-stroke"/><path stroke="#fbcfcf" d="M77.814 207.544a.9.9 0 0 0-.273-1.243l-8.24-5.27a.9.9 0 0 0-1.243.274l-.032.05a.9.9 0 0 0 .273 1.244l8.24 5.27a.9.9 0 0 0 1.243-.274l.032-.05" vector-effect="non-scaling-stroke"/><path stroke="#fde1ba" d="m115.53 202.97-3.1-1.15a.6.6 0 0 0-.64.99c1.85 1.88 5.77 3.99 7.41.49a.96.95 35.8 0 0-.18-1.08q-1.6-1.65-3.65-2.44a.58.58 0 0 0-.67.89l1.28 1.7a.39.39 0 0 1-.45.6" vector-effect="non-scaling-stroke"/><path stroke="#fce6be" d="M154.438 201.642a1.22.93-163.9 0 0 .914 1.232 1.22.93-163.9 0 0 1.43-.556 1.22.93-163.9 0 0-.914-1.232 1.22.93-163.9 0 0-1.43.556M175.841 216.084a3.06 2.41-178.2 0 0 2.983 2.505 3.06 2.41-178.2 0 0 3.134-2.313 3.06 2.41-178.2 0 0-2.982-2.505 3.06 2.41-178.2 0 0-3.135 2.313" vector-effect="non-scaling-stroke"/><path stroke="#f9c7d3" d="m219.8 217.15-1.65.24a1 .99 88.6 0 0-.85.9v.03a.78.78 0 0 0 .83.78l5.09-.3a.95.95 0 0 0 .48-1.73l-5.05-3.45a.69.69 0 0 0-.92.14l-.25.3a.59.59 0 0 0 .12.86l2.35 1.6a.35.35 0 0 1-.15.63" vector-effect="non-scaling-stroke"/><path stroke="#fce6be" d="M141.55 217.41c-1.96-1.75-5.57-3.07-7.46-.5a1.69 1.61 37.3 0 0 .36 2.27q1.75 1.36 3.57 1.35a.89.89 0 0 0 .51-.16l2.95-2a.61.6-41.1 0 0 .07-.96M154.93 229.47l-2.06-1.3a.88.88 0 0 0-1.21 1.21c1.29 2.05 4.92 3.37 6.3.44q.72-1.53.01-2.2-.82-.76-2.28-.9a.74.73-29.5 0 0-.39 1.39q.68.32.55.96a.61.61 0 0 1-.92.4M96.42 221.82q-1.03.81-1.03 1.52a1.18 1.14-24 0 0 2.03.74q1.01-1.05 4.1-4.47a1.22 1.22 0 0 0-.72-2.02q-2.27-.34-4.75 1.18a.32.32 0 0 1-.48-.34l.32-1.58a1.24 1.23 88.8 0 0-1.51-1.45q-2.99.74-4.73 3.21a.9.78-60.4 0 0 .26 1.29q.36.15.9-.11.21-.11 2.02-1.81a.37.37 0 0 1 .61.35l-.51 2.48a.93.93 0 0 0 .94 1.12q.81-.02 1.98-.56.01-.01.25.01.32.01.39.17a.23.23 0 0 1-.07.27" vector-effect="non-scaling-stroke"/><path stroke="#fce6be" d="M136.12 217.19a1.62.71-165.7 0 0 1.395 1.088 1.62.71-165.7 0 0 1.745-.288 1.62.71-165.7 0 0-1.395-1.088 1.62.71-165.7 0 0-1.745.288" vector-effect="non-scaling-stroke"/><path stroke="#f9c7d3" d="M249.778 231.096a.84.84 0 0 0-.26-1.16l-5.766-3.644a.84.84 0 0 0-1.158.262l-.032.05a.84.84 0 0 0 .26 1.16l5.766 3.643a.84.84 0 0 0 1.158-.26l.032-.051M247.76 231.6l-6.51-4.25a.28.28 0 0 0-.39.08l-.22.35a1.51 1.09 33.1 0 0 .67 1.73l4.45 2.91a1.51 1.09 33.1 0 0 1.86-.09l.23-.34a.28.28 0 0 0-.09-.39" vector-effect="non-scaling-stroke"/><path stroke="#fbcfcf" d="m203.05 229.95-4.25-2.4a.71.71 0 0 0-.87 1.11q.01.01 1.26.97a.68.67-42.2 0 1-.06 1.11l-1.69 1.06a.74.74 0 0 0 .38 1.37l.54.01a1.12 1.12 0 0 0 .58-.14l4.12-2.39a.41.4 44.6 0 0-.01-.7" vector-effect="non-scaling-stroke"/><path stroke="#fce6be" d="M173.166 243.875a3.56 2.73-174.6 0 0 3.287 3.053 3.56 2.73-174.6 0 0 3.801-2.383 3.56 2.73-174.6 0 0-3.287-3.053 3.56 2.73-174.6 0 0-3.801 2.383" vector-effect="non-scaling-stroke"/><path stroke="#f9c7d3" d="M216.76 242.92a3.73 2.62-164.3 0 0 2.881 3.532 3.73 2.62-164.3 0 0 4.3-1.513 3.73 2.62-164.3 0 0-2.882-3.531 3.73 2.62-164.3 0 0-4.3 1.513" vector-effect="non-scaling-stroke"/><path stroke="#fbcfcf" d="M274.539 248.938a1.38 1.38 0 0 0-.446-1.9l-7.139-4.427a1.38 1.38 0 0 0-1.9.446l-.053.085a1.38 1.38 0 0 0 .446 1.9l7.139 4.427a1.38 1.38 0 0 0 1.9-.446l.053-.085" vector-effect="non-scaling-stroke"/><path stroke="#f7e0e4" d="M221.286 243.789a1.22.83-11.4 0 0-1.36-.573 1.22.83-11.4 0 0-1.032 1.055 1.22.83-11.4 0 0 1.36.573 1.22.83-11.4 0 0 1.032-1.055" vector-effect="non-scaling-stroke"/><path stroke="#fce6be" d="M175.812 243.609a1.22.79-154.2 0 0 .754 1.242 1.22.79-154.2 0 0 1.442-.18 1.22.79-154.2 0 0-.754-1.242 1.22.79-154.2 0 0-1.442.18" vector-effect="non-scaling-stroke"/><path stroke="#fac2cf" d="M198.57 256.81a1.23.81-158 0 0 .837 1.211 1.23.81-158 0 0 1.443-.29 1.23.81-158 0 0-.837-1.212 1.23.81-158 0 0-1.443.29" vector-effect="non-scaling-stroke"/><path stroke="#f9c7d3" d="M195.418 259.689a2.53.91-163.2 0 0 2.159 1.602 2.53.91-163.2 0 0 2.685-.14 2.53.91-163.2 0 0-2.159-1.602 2.53.91-163.2 0 0-2.685.14" vector-effect="non-scaling-stroke"/><path stroke="#fbcfcf" d="M251.306 263.13a1.29 1.29 0 0 0-.398-1.78l-6.585-4.18a1.29 1.29 0 0 0-1.78.398l-.13.202a1.29 1.29 0 0 0 .399 1.78l6.585 4.18a1.29 1.29 0 0 0 1.78-.398l.13-.202" vector-effect="non-scaling-stroke"/><path stroke="#fce6be" d="M181.833 275.691a1.3 1.3 0 0 0-.382-1.798l-6.391-4.15a1.3 1.3 0 0 0-1.798.382l-.055.084a1.3 1.3 0 0 0 .382 1.798l6.391 4.15a1.3 1.3 0 0 0 1.798-.382l.055-.084" vector-effect="non-scaling-stroke"/><path stroke="#fbcfcf" d="m226.74 275.26 1.14-.86a1.22 1.22 0 0 0-1.38-2l-2.12 1.35a1.02 1.01 43.5 0 1-1.04.02q-.51-.29-1.33-.48a.92.91-13.3 0 0-.92 1.48q.22.26.31.82.06.35-.5.68-1.05.6-1.27 1.44a.52.52 0 0 0 .48.66q1.26.07 2.31-.78c.97-.78 1.75-.22 2.45.41a1.51 1.4 32 0 0 2.37-.45q.34-.9-.43-1.33a.58.57 41 0 1-.07-.96M206.957 291.7a1.24 1.24 0 0 0-.37-1.714l-6.927-4.464a1.24 1.24 0 0 0-1.714.37l-.043.068a1.24 1.24 0 0 0 .37 1.714l6.927 4.464a1.24 1.24 0 0 0 1.714-.37l.043-.068" vector-effect="non-scaling-stroke"/></g><path fill="#fba4a7" d="M343.75 103.54q.24.93-.01 1.67a1.35 1.32 84.5 0 1-.58.72q-1.6.95-3.33 1.7-1.9.84-.8 3.14-2.19-2.39-4.26-3.79-8.97-6.06-20.96-13.68-13.28-8.45-21.03-13.63-35.53-23.71-77.23-50.47-12.94-8.31-23.43-15.33-5.7-3.81-12.28-5.75c4.71-3.56 8.24-5.77 13.61-2.31q75.36 48.54 150.3 97.73Z"/><path fill="#fbefef" d="M179.84 8.12q6.58 1.94 12.28 5.75 10.49 7.02 23.43 15.33 41.7 26.76 77.23 50.47 7.75 5.18 21.03 13.63 11.99 7.62 20.96 13.68 2.07 1.4 4.26 3.79 3.9 5.28 4.86 11.92-.78 4.72-1.4 7.05Q330.2 176.27 314 239.53a1.1 1.1 0 0 1-1.68.65L144.29 129.79l1.37-5.76c1.91 1.98 3.11.89 5.11.06a1.46 1.44 40.3 0 1 .95-.07q1.26.32 1.51 1.32l4.22 4.11 97.83 63.76 45.4 29.31q2.08-.36 3.38-.95c2.06-.94 2.42-3.56 2.94-5.59q13.37-51.6 25.45-96.77 1.14-4.27-3.16-7.89l-88.56-57.91-53.88-34.97a3.43 3.39-18.8 0 0-.7-.34q-6-2.17-8.83 2.44l-1.12 2.67-.74 2.21a.17.15-72.7 0 1-.19.11h-.01a.12.08-78 0 1-.05-.13l.51-2.87a.03.03 0 0 0-.03-.03l-.66-.1a.02.02 0 0 0-.02.02l-3.09 11.12q1.16-10.07 5.02-19.72a1.91 1.91 0 0 0-.99-2.45q-.52-.24-2.98.13 3.48-2.63 6.87-3.38Z"/><path fill="#faf9f7" d="M171.92 33.54q-2.35 14.7-5.54 29.22-5.14 23.41-5.15 23.48-4.05 19.59-8 39.1-.25-1-1.51-1.32a1.46 1.44 40.3 0 0-.95.07c-2 .83-3.2 1.92-5.11-.06q10.84-46.61 21.58-93.28 2.88-12.5 5.73-19.25 2.46-.37 2.98-.13a1.91 1.91 0 0 1 .99 2.45q-3.86 9.65-5.02 19.72Z"/><path fill="#6f6ed4" d="m240.73 53.41-2.01 9.25-7.47-5.13q-20.85-12.97-41.7-26.02c-4.69-2.93-9.01-1.45-9.89 4.23-.91 5.88-1.75 8.71-2.74 13.86q-4.54 23.51-8.9 44.26-.2.97-.87 3.14-.42 1.36-.47 3.33a4.78 4.44 54.2 0 1-.12.96q-2.45 10.38-3.34 16.9-.62 4.55 1.45 8.09 1.13 1.94 6.22 5.37 6.73 4.52 13.39 9.15 11.29 8.1 22.87 15.8 3.32 2.21 6.67 4.37 21.76 14.06 43.43 28.25l-1.97 3.99-97.83-63.76q-1.43-4.35-1.07-6.05 8.31-39.56 16.32-79.18c.75-3.68 1.2-8.64 2.28-12.94l-.03 1.98a.15.13-85.9 0 0 .12.16v.01a.16.15 7.3 0 0 .18-.13l2.07-12.76q2.83-4.61 8.83-2.44a3.43 3.39-18.8 0 1 .7.34l53.88 34.97Z"/><path fill="#9f9cec" d="m177.32 20.54-2.07 12.76a.16.15 7.3 0 1-.18.13v-.01a.15.13-85.9 0 1-.12-.16l.03-1.98 1.22-8.07 1.12-2.67Z"/><path fill="#babff7" d="m176.2 23.21-1.22 8.07c-1.08 4.3-1.53 9.26-2.28 12.94q-8.01 39.62-16.32 79.18-.36 1.7 1.07 6.05l-4.22-4.11q3.95-19.51 8-39.1.01-.07 5.15-23.48 3.19-14.52 5.54-29.22l3.09-11.12a.02.02 0 0 1 .02-.02l.66.1a.03.03 0 0 1 .03.03l-.51 2.87a.12.08-78 0 0 .05.13h.01a.17.15-72.7 0 0 .19-.11l.74-2.21Z"/><path fill="#a9affa" d="m231.25 57.53-2.02 5.57q-10-6.29-19.92-12.68c-3.03-1.95-5.73-3.33-8.72-1.55q-1.54.92-2.66 6.29-3 14.43-6.07 28.78-4.74 21.99-9.19 44.03-1.35 6.66 2.59 11.95a.62.62 0 0 1-.21.92q-.18.1-.77-.04-6.66-4.63-13.39-9.15-5.09-3.43-6.22-5.37-2.07-3.54-1.45-8.09.89-6.52 3.34-16.9a4.78 4.44 54.2 0 0 .12-.96q.05-1.97.47-3.33.67-2.17.87-3.14 4.36-20.75 8.9-44.26c.99-5.15 1.83-7.98 2.74-13.86.88-5.68 5.2-7.16 9.89-4.23q20.85 13.05 41.7 26.02Zm-48.68-12.37a.98.98 0 0 0-1.49.63l-9.11 44.12a.98.98 0 0 0 .43 1.03l7.07 4.46a.98.98 0 0 0 1.49-.63l9.1-44.13a.98.98 0 0 0-.43-1.03l-7.06-4.45Zm-6.11 70.44 1.08-5.22a1.41 1.41 0 0 0-.63-1.47l-5.43-3.42a1.35 1.35 0 0 0-2.04.87l-.77 3.74a2.21 2.2 23 0 0 .92 2.27l5.53 3.77a.87.87 0 0 0 1.34-.54Z"/><path fill="#fba4a7" d="m182.57 45.16 7.06 4.45a.98.98 0 0 1 .43 1.03l-9.1 44.13a.98.98 0 0 1-1.49.63l-7.07-4.46a.98.98 0 0 1-.43-1.03l9.11-44.12a.98.98 0 0 1 1.49-.63Z"/><path fill="#6664cf" d="M229.23 63.1c5.34 3.35 11.3 6.55 16.13 9.82q16.24 11.02 30.71 20 1.5.93 3.49 2.51a3.85 3.85 0 0 1 1.38 3.81l-.34 1.68a1.47 1.47 0 0 1-2.24.93Q258.4 88.79 254.7 86.54q-10.5-6.39-17.17-10.9c-7.65-5.17-16.88-10.56-24.03-15.36q-3.14-2.1-7.04-2.99-3.85-.87-5.15 2.71-4.89 13.53-8.72 25.64a.32.32 0 0 1-.63-.08l-.1-1.62q3.07-14.35 6.07-28.78 1.12-5.37 2.66-6.29c2.99-1.78 5.69-.4 8.72 1.55q9.92 6.39 19.92 12.68Z"/><path fill="#735fb6" d="m240.73 53.41 88.56 57.91q-.76 6.22-1.34 8.39-6.34 23.92-12.92 49.01c-1.88 7.16-5.04 18.05-7.12 27.07q-1.14 4.89-3.63 13.36-1.86 6.3-3.6 13.37l-45.4-29.31 1.97-3.99q13.82 8.95 27.6 17.96c4.38 2.86 9.88 2.95 11.5-3.12q1.21-4.53 20.24-76.98 1.77-6.73 1.14-9.72-1.02-4.78-5.73-7.74-23.52-14.79-37.83-24.27-12.54-8.31-29.87-18.91-3.55-2.17-5.58-3.78l2.01-9.25Z"/><path fill="#9f9cec" d="m229.23 63.1 2.02-5.57 7.47 5.13q2.03 1.61 5.58 3.78 17.33 10.6 29.87 18.91 14.31 9.48 37.83 24.27 4.71 2.96 5.73 7.74.63 2.99-1.14 9.72-19.03 72.45-20.24 76.98c-1.62 6.07-7.12 5.98-11.5 3.12q-13.78-9.01-27.6-17.96-21.67-14.19-43.43-28.25-3.35-2.16-6.67-4.37-11.58-7.7-22.87-15.8.59.14.77.04a.62.62 0 0 0 .21-.92q-3.94-5.29-2.59-11.95 4.45-22.04 9.19-44.03l.1 1.62a.32.32 0 0 0 .63.08q3.83-12.11 8.72-25.64 1.3-3.58 5.15-2.71 3.9.89 7.04 2.99c7.15 4.8 16.38 10.19 24.03 15.36q6.67 4.51 17.17 10.9 3.7 2.25 23.66 15.31a1.47 1.47 0 0 0 2.24-.93l.34-1.68a3.85 3.85 0 0 0-1.38-3.81q-1.99-1.58-3.49-2.51-14.47-8.98-30.71-20c-4.83-3.27-10.79-6.47-16.13-9.82Zm6.6 97.64 16.24 10.73a2.59 2.57-52.9 0 0 3.38-.49q.73-.85 1.36-3.19 16.35-59.96 16.68-61.54.73-3.47-1.41-4.86-13.12-8.5-27.01-17.56c-6.44-4.2-16.63-10.31-24.72-15.81q-3.88-2.22-7.57-4.49c-1.9-1.16-4.61-2.32-5.33.67q-6.98 29.22-15.48 62.57-1.43 5.57 3.25 8.5 14.21 8.88 34.9 22.36.46.3 1.01.44a1.4 1.37 73.5 0 1 .66.37q1.67 1.64 4.04 2.3Zm50.32-59.27q-.14 1.84 1.06 2.6 7.23 4.58 14.48 9.13.88.55 1.53.6 1.11.08 1.3-.77 1.23-1.36-.58-2.73-3.81-2.89-15.05-9.44-2.5-1.46-2.74.61Zm-9.59 11.29q-1.75.44-3.03 5.07-13.04 47.07-15.02 53.31-1.02 3.25-2.03 6.97a2.2 2.15-41 0 0-.07.85q.26 2.3 2.03 3.42 8.31 5.29 25.68 16.08a1.19 1.18 34.4 0 0 1.57-.29q1.89-2.5.41-4.81l1-.42q.1.91 1.11.74 1.71-.28 2.22-1.94 1.89-6.16 3.24-12.23.41-1.82-1.97-3.78-.72-.17-1-.52 1.19-1.3 1.84-3.04.8-.3.78-.89 1.94 2.58 3.36-2.17 1.62-5.39 3.17-10.86.44-1.52-1.4-3.36 2.63-2.78 3.31-5.62 1.48-6.25 2.87-12.53.56-2.52.8-4.91 3.61-2.46-1.51-5.73-12.93-8.24-25.85-16.22a1.1 1.1 0 0 0-1.61.54q-.58 1.49.1 2.34Z"/><path fill="#4945ac" d="M220.35 68.02q-4.82.23-8.79-1.05a1.68 1.67 15.8 0 0-2.14 1.19q-6.65 26.67-13.61 55.67c-1.1 4.59-1.1 9.18 2.62 11.5q19.18 11.97 37.4 25.41-2.37-.66-4.04-2.3a1.4 1.37 73.5 0 0-.66-.37q-.55-.14-1.01-.44-20.69-13.48-34.9-22.36-4.68-2.93-3.25-8.5 8.5-33.35 15.48-62.57c.72-2.99 3.43-1.83 5.33-.67q3.69 2.27 7.57 4.49Z"/><path fill="#24227b" d="M220.35 68.02c8.09 5.5 18.28 11.61 24.72 15.81q13.89 9.06 27.01 17.56 2.14 1.39 1.41 4.86-.33 1.58-16.68 61.54-.63 2.34-1.36 3.19a2.59 2.57-52.9 0 1-3.38.49l-16.24-10.73q-18.22-13.44-37.4-25.41c-3.72-2.32-3.72-6.91-2.62-11.5q6.96-29 13.61-55.67a1.68 1.67 15.8 0 1 2.14-1.19q3.97 1.28 8.79 1.05Zm34.66 92.42 10.83-39.65 3.29-12.27a1.93 1.93 0 0 0-.84-2.15l-51.47-32.42a1.41 1.41 0 0 0-1.94.44q-.69 1.09-1.06 2.69-5.69 24.56-12.73 51.02c-1.3 4.9.83 5.55 4.86 8.05 14.8 9.19 21.66 13.23 33.49 21.16q5.89 3.95 13.23 8.16a.44.43 24.4 0 0 .63-.23l1.71-4.8Z"/><path fill="#6664cf" d="m265.84 120.79-47.57-29.6a1.25 1.11-14.9 0 0-.26-.13c-4.37-1.38-5.81.95-6.75 5.14q-2.56 11.27-7.07 29.58a2.31 2.25 46.9 0 0-.02.99q.46 2.49 2.68 3.89 23.78 15.07 48.16 29.78l-1.71 4.8a.44.43 24.4 0 1-.63.23q-7.34-4.21-13.23-8.16c-11.83-7.93-18.69-11.97-33.49-21.16-4.03-2.5-6.16-3.15-4.86-8.05q7.04-26.46 12.73-51.02.37-1.6 1.06-2.69a1.41 1.41 0 0 1 1.94-.44l51.47 32.42a1.93 1.93 0 0 1 .84 2.15l-3.29 12.27Z"/><path fill="#9eccf1" d="m265.84 120.79-10.83 39.65q-24.38-14.71-48.16-29.78-2.22-1.4-2.68-3.89a2.31 2.25 46.9 0 1 .02-.99q4.51-18.31 7.07-29.58c.94-4.19 2.38-6.52 6.75-5.14a1.25 1.11-14.9 0 1 .26.13l47.57 29.6Z"/><path fill="#faf9f7" d="M304.52 113.03q-8.54-6.93-18.37-11.56.24-2.07 2.74-.61 11.24 6.55 15.05 9.44 1.81 1.37.58 2.73Z"/><path fill="#babff7" d="M304.52 113.03q-.19.85-1.3.77-.65-.05-1.53-.6-7.25-4.55-14.48-9.13-1.2-.76-1.06-2.6 9.83 4.63 18.37 11.56Z"/><path fill="#bb4f92" d="m323.58 241.05-8.19 8.63a3.91 3.9 6.4 0 1-.78.62l-12.03 7.13 13.07-8.95q.53-.13 1.05-1.05a.41.41 0 0 0-.44-.61q-.35.07-.58.03a1.06 1.05-77.4 0 1-.82-1.3q11.45-44.67 19.57-76.77 1.24-4.88 1.89-7.69c2.04-8.85 4.2-17.06 6.67-27.53q1.42-6.06.9-10.87-.96-6.64-4.86-11.92-1.1-2.3.8-3.14 1.73-.75 3.33-1.7a1.35 1.32 84.5 0 0 .58-.72q.25-.74.01-1.67c6.09 2.97 9.51 9.32 9.81 15.88q.14 2.92-1.39 9.05-14.01 56.42-28.59 112.58Z"/><path fill="#babff7" d="M176.46 115.6a.87.87 0 0 1-1.34.54l-5.53-3.77a2.21 2.2 23 0 1-.92-2.27l.77-3.74a1.35 1.35 0 0 1 2.04-.87l5.43 3.42a1.41 1.41 0 0 1 .63 1.47l-1.08 5.22Z"/><path fill="#6664cf" d="m305.43 131.83-28.87-19.07q-.68-.85-.1-2.34a1.1 1.1 0 0 1 1.61-.54q12.92 7.98 25.85 16.22 5.12 3.27 1.51 5.73Z"/><path fill="#4945ac" d="M329.29 111.32q4.3 3.62 3.16 7.89-12.08 45.17-25.45 96.77c-.52 2.03-.88 4.65-2.94 5.59q-1.3.59-3.38.95 1.74-7.07 3.6-13.37 2.49-8.47 3.63-13.36c2.08-9.02 5.24-19.91 7.12-27.07q6.58-25.09 12.92-49.01.58-2.17 1.34-8.39Z"/><path fill="#babff7" d="m276.56 112.76 28.87 19.07q-.24 2.39-.8 4.91-1.39 6.28-2.87 12.53-.68 2.84-3.31 5.62-.31-.44-1.14-.7l-1.87-1.07q.5-.1.51-.1a.72.71 33.1 0 0-.21-.98q-10.13-6.67-19.67-12.87-1.98-1.28-3.47-.12-1.56 1.23-.93 1.91Q270 147 268.07 153q-.91 2.84 1.78 4.42 4.78 2.81 22.69 14.75-.65 1.74-1.84 3.04l-1.68-.45q.44-.38.41-.55-.1-.68-.66-1.03-9.57-6.12-19.02-12.48-1.73-1.16-2.97-.95-1.65.28-1.45 2.5-1.84 5.52-3.54 11.28-1.03 3.5 2.38 5.57 5.88 3.56 21.93 14.26 1.48 2.31-.41 4.81a1.19 1.18 34.4 0 1-1.57.29q-17.37-10.79-25.68-16.08-1.77-1.12-2.03-3.42a2.2 2.15-41 0 1 .07-.85q1.01-3.72 2.03-6.97 1.98-6.24 15.02-53.31 1.28-4.63 3.03-5.07Zm27.536 22.027a1.47 1.47 0 0 0-.478-2.023l-25.49-15.743a1.47 1.47 0 0 0-2.023.478l-.021.034a1.47 1.47 0 0 0 .478 2.023l25.49 15.743a1.47 1.47 0 0 0 2.023-.478l.021-.034Zm-26.566-2.437-3.07-1.7a.47.47 0 0 0-.57.73q.83.9 2.64 2.07 11.09 7.17 21.46 13.69a.64.63-74 0 0 .97-.54q0-.03-.03-.45l2-7.61a1.15 1.15 0 0 0-.5-1.27l-19.75-12.44a.76.76 0 0 0-1.13.43l-2.02 7.09Z"/><rect width="32.9" height="2.98" x="-16.45" y="-1.49" fill="#6664cf" rx="1.47" transform="rotate(31.7 -77.135 573.956)"/><path fill="#f4c6d1" d="M315.65 248.48q-9.38-6.87-14.15-9.99-40.57-26.56-81.09-53.19c-2.88-1.89-7.78-5.5-11.95-7.9l-65.74-43.34q1.16-1.19 1.57-4.27l168.03 110.39a1.1 1.1 0 0 0 1.68-.65q16.2-63.26 28.49-109.79.62-2.33 1.4-7.05.52 4.81-.9 10.87c-2.47 10.47-4.63 18.68-6.67 27.53q-.65 2.81-1.89 7.69-8.12 32.1-19.57 76.77a1.06 1.05-77.4 0 0 .82 1.3q.23.04.58-.03a.41.41 0 0 1 .44.61q-.52.92-1.05 1.05Z"/><path fill="#9eccf1" d="m298.93 146.15-21.4-13.8 2.02-7.09a.76.76 0 0 1 1.13-.43l19.75 12.44a1.15 1.15 0 0 1 .5 1.27l-2 7.61Z"/><path fill="#6f6ed4" d="m277.53 132.35 21.4 13.8q.03.42.03.45a.64.63-74 0 1-.97.54q-10.37-6.52-21.46-13.69-1.81-1.17-2.64-2.07a.47.47 0 0 1 .57-.73l3.07 1.7Z"/><path fill="#faf9f7" d="m142.72 134.06 65.74 43.34q.92 7.13.3 13.99l-71.65-46.9a.8.77-56.5 0 0-1.08.24l-.02.03a.8.77-56.7 0 0 .2 1.09l73.01 47.68q2.2 2.63 1.75 5.62l-10.8-7.18a2.19 2.18-45.4 0 0-2.45.02q-5.49 3.76-11.51 7.7-1.9 1.23-1.08 2.58-.18 2.27.52 2.83 5.15 4.07 15.84 10.37 2.24-.2 5.38.86v1.22l.13 1.97q-.79 1.66-2.89 2.6-1.31-1.23-2.93-1.58a1.55 1.52-55.2 0 0-1.21.23q-9.78 6.73-12.49 8.94-1.58 1.28-.6 2.08-.63 2.08.27 2.8 4.75 3.77 12.15 8.15 2.35 1.4 3.74.4 3.34-2.39 6.62-4.73 1.2.91 1.89 2.05l-5.03 3.48q-3.07 3.67-6.54 4.79-10.21 6.98-13.98 10.03-.75.6-.16 1.95-.44 1.84.89 2.81 7.49 5.46 14.97 9.3 1.5-.56 1.91.52c.75 1.98-2.37 3.04-3.69 3.4a1.05 1.01 14.5 0 0-.48.27l-2.45 2.49q-4.34 3.12-8.82 6.18-2.36 1.61-1.12 3.67-.38 2.78.66 3.46 8.49 5.61 16.72 11.58c.29.21.74.32 1.08.51.78 1.32 2.23 1.08 3.36 1.26q2.31.36 3.21-.72a.17.17 0 0 1 .3.12q-.04.52.65.68a.21.21 0 0 1 .06.39q-2.88 1.62-5.41 4.82-.4.5-1.96 5.09c-2.11 6.17-9.08 9.35-14.43 12.44-6.55 1.75-13.95 2.3-18.97-1.08Q98.65 278.23 21.93 227.58q-2.92-1.93-3.94-5.46a.78.65-58.3 0 1-.03-.21l-.29-4.75 125.05-83.1Zm-24.97 24.11q-.18 3.14.95 3.9 1.99 1.34 9.12 5.9c2.96 1.9 4.86 3.46 7.63 1.47q5.39-3.89 10.73-7.76 1.65-1.2 1.19-4.25-6.36-4.04-12.89-7.81c-1.92-1.12-3.41-1.29-5.25-.15q-6.26 3.9-11.48 8.7Zm22.7 14.6q-.54 2.48.54 3.21 7.22 4.83 14.6 9.55a3.11 3.11 0 0 0 3.52-.12q4.85-3.57 10.14-7.44 2.16-1.58.97-4.97.2-.83-.47-1.24-7.23-4.4-14.35-9.49a2.19 2.18-45.1 0 0-2.56.01q-5.67 4.11-11.21 7.85-1.92 1.3-1.18 2.64Zm-42.26.79q-.67 2.58 1.45 3.86 6.59 3.98 11.84 7.39a3.15 3.15 0 0 0 3.61-.13q4.55-3.46 11.43-8.15 1.43-.97 1.48-4.28l-14.84-9.12a2.94 2.94 0 0 0-3.28.15q-5.23 3.89-11.15 8.19-.87.62-.54 2.09Zm21.95 13.89q-.33 2.06.94 2.97 4.51 3.26 13.62 9.16c2.31 1.5 3.68 1.41 5.82-.27q4.08-3.2 10.18-7.4a1.61 1.59 82.2 0 0 .6-.8q.44-1.26.04-2.83.16-1.37-.86-2.02-7.84-4.92-14.99-9.82a2.33 2.33 0 0 0-2.69.04q-5.44 3.99-11.96 8.6-.96.68-.7 2.37Zm42.2-.4q-.5 2.11.36 3.29a.82.76 86.8 0 0 .25.24l13.97 8.87a3.29 3.28-46.2 0 0 3.65-.08q5.08-3.57 10.53-7.28 2.52-1.71 1.1-5.41l-14.67-9.94a2.2 2.19 43.8 0 0-2.52.05q-5.67 4.16-11.75 8.19-1.74 1.14-.92 2.07Zm-83.87 3.2q.29 1.09 1.39 1.9 4.77 3.55 11.16 7.86 2.03 1.37 3.94.94a2.25 2.16 19.7 0 0 .85-.38q.76-.55 11.26-8.01 2.43-1.72 1.65-4.51-.11-.62-.45-.83-6.8-4.21-13.6-9.12a2.43 2.43 0 0 0-2.82-.03q-5.77 4.05-12.36 8.42-1.65 1.09-1.02 3.76Zm64.04 13.12q-.19 1.64 1.62 2.81 4.78 3.07 11.61 7.46a2.85 2.85 0 0 0 3.23-.1q2.9-2.12 11.62-8.46 1.43-1.03.87-2.92.52-1.66-.46-2.25-6.54-3.91-13.24-8.31a2.04 2.02 42.6 0 0-2.36.09q-6.29 4.84-12.51 9.23-.98.68-.38 2.45Zm-86.06-.42q.38 3.31 2.12 4.47 11.11 7.38 14.98 9.77 2.03 1.25 3.53.18 11.19-7.98 12.65-8.91 1.86-1.19 1.33-3.75.28-.56-.87-1.35-7.39-5.16-14.89-10.2-2.82-1.9-5.93.19-8.49 5.68-12.92 9.6Zm44.38-.24.71 3.52a1.19 1.18-79.4 0 0 .52.76q6.52 4.14 13.01 8.45 2.82 1.87 4.74 1.56a1.98 1.98 0 0 0 .9-.39l12.16-9.38a1.48 1.43-10.3 0 0 .49-.68q.4-1.14-.13-2.93.29-.26-.45-1.03-.42-.44-.97-.76-7.31-4.31-14.1-9.14a1.87 1.86-44.4 0 0-2.14-.02l-14.74 10.04Zm63.98 14q-.61 2.53 1.19 3.78 9.96 6.94 13.23 9 2.03 1.28 3.65.15 5.4-3.74 11.92-8.36 1.52-1.07.49-4.8.09-.65-1.33-1.68-8.21-5.97-12.89-9.16a2.15 2.14-44.8 0 0-2.41 0q-7.39 5.04-12.6 8.42-2.01 1.3-1.25 2.65Zm-40.2 2.09q-.58 1.79.22 2.38 14.74 10.97 30.43 20.58a3.09 3.08 42.4 0 0 3.45-.15q4.24-3.15 11.72-8.41 1.59-1.12 1.17-3.17c.25-.9-.04-1.69-.84-2.2-7.21-4.51-13.07-9.31-20.22-13.36q-2.86-1.62-9.44-6.44a2.09 2.09 0 0 0-2.41-.04q-3.36 2.29-13.09 9.09-1.41.99-.99 1.72Zm-41.4 2.1q-.31 2.71.73 3.42 13.04 8.85 13.12 8.9 2.21 1.52 4.39-.05 6.05-4.36 12.97-9.52 1.26-.94.44-3.42-.21-.1-.65-.76a1.49 1.43 2 0 0-.41-.42l-14.78-10.09a2.53 2.52-44.6 0 0-2.84-.01q-5.53 3.71-11.72 8.52-2.56 2-1.25 3.43Zm22.65 14.99q-.87 2.16.47 3.05 45.06 29.95 46.86 31.17 2.3 1.55 4.46.01 6.67-4.79 11.65-8.32c1.44-1.02 1.57-2.09 1.34-3.73q-.24-.93-1.92-2.04-21.42-14.18-46.88-30.94a2.11 2.09 43.5 0 0-2.39.05q-3.58 2.62-12.86 9.47-1.25.93-.73 1.28Zm57.03 9.18q-.36 2.06.72 2.82 1.56 1.1 11.95 7.78 2.23 1.44 4.06.75a2.69 2.65 16.3 0 0 .65-.35q4.22-3.08 11.33-8.48 2.14-1.63 1.2-4.03l-13.32-9.29a2.19 2.19 0 0 0-2.54.03q-6.5 4.72-13.23 9.43-1.22.86-.82 1.34Zm-80.6 14.99q.13 1.48 2.4 3.01 7.82 5.3 38.35 26.98c5.17 3.67 6.92 1.1 10.86-2.8q1.49-1.47 4.16-3.47 4.1-3.06 8.85-7.38 1.49-1.34-.2-2.76-.86-1.97-2.63-3.25l-39.84-25.87a2.4 2.4 0 0 0-2.74.09q-8.9 6.62-17.92 13.21-1.16.85-1.29 2.24Zm80.7 13.09q-.58 2.61 1.54 4.05 6.84 4.63 13.85 9.38a2.82 2.81-45.8 0 0 3.21-.05q5.11-3.65 10.88-7.59 2.89-1.98 1.87-6.39l-15.61-10.58a2.44 2.43-47 0 0-2.89.11q-5.76 4.55-11.88 9.16-1.69 1.27-.97 1.91ZM295.44 153.12q-2.74-1.34-3.79-2.02-7.92-5.1-15.9-10.08-2.29-1.43-4.08-.06-.63-.68.93-1.91 1.49-1.16 3.47.12 9.54 6.2 19.67 12.87a.72.71 33.1 0 1 .21.98q-.01 0-.51.1Z"/><path fill="#77bef2" d="m295.44 153.12 1.87 1.07q.55 2.45-.01 4.42-1.75 6.09-3.98 12.67.02.59-.78.89-17.91-11.94-22.69-14.75-2.69-1.58-1.78-4.42 1.93-6 3.6-12.04 1.79-1.37 4.08.06 7.98 4.98 15.9 10.08 1.05.68 3.79 2.02Zm-23-2.08q-.74 1.63.38 3.41a1.74 1.7 88.8 0 0 .61.6l8.95 5.18a1.44 1.41-38.4 0 0 1.12.12q2.25-.72 1.98-2.32-.01-1.52-.9-2.12-4.68-3.19-9.46-6.23a1.16 1.15-23.4 0 0-.46-.18q-2.13-.34-2.22 1.54Z"/><path fill="#f4c6d1" d="m208.76 191.39 77 50.44a.33.33 0 0 1 .13.4l-.09.26a.72.72 0 0 1-1.06.35l-75.52-49.31-73.01-47.68a.8.77-56.7 0 1-.2-1.09l.02-.03a.8.77-56.5 0 1 1.08-.24l71.65 46.9Z"/><path fill="#fed384" d="M147.37 157.43q-6.3 4.78-11.79 8.91-2.6 1.95-5.51.08-5.7-3.67-12.32-8.25 5.22-4.8 11.48-8.7c1.84-1.14 3.33-.97 5.25.15q6.53 3.77 12.89 7.81Zm-13.27 2.59.92-1.66a.72.72 0 0 0-.29-.98l-4.51-2.49a3.48 1.49 28.9 0 0-3.77-.38l-.17.32a3.48 1.49 28.9 0 0 2.32 2.98l4.52 2.5a.72.72 0 0 0 .98-.29Z"/><path fill="#faf9f7" d="m285.48 158.03-13.04-6.99q.09-1.88 2.22-1.54a1.16 1.15-23.4 0 1 .46.18q4.78 3.04 9.46 6.23.89.6.9 2.12Z"/><path fill="#babff7" d="M285.48 158.03q.27 1.6-1.98 2.32a1.44 1.41-38.4 0 1-1.12-.12l-8.95-5.18a1.74 1.7 88.8 0 1-.61-.6q-1.12-1.78-.38-3.41l13.04 6.99Z"/><path fill="#faf9f7" d="M134.1 160.02a.72.72 0 0 1-.98.29l-4.52-2.5a3.48 1.49 28.9 0 1-2.32-2.98l.17-.32a3.48 1.49 28.9 0 1 3.77.38l4.51 2.49a.72.72 0 0 1 .29.98l-.92 1.66Z"/><path fill="#4945ac" d="M297.31 154.19q.83.26 1.14.7 1.84 1.84 1.4 3.36-1.55 5.47-3.17 10.86-1.42 4.75-3.36 2.17 2.23-6.58 3.98-12.67.56-1.97.01-4.42Z"/><path fill="#cd6a45" d="M147.37 157.43q.46 3.05-1.19 4.25-5.34 3.87-10.73 7.76c-2.77 1.99-4.67.43-7.63-1.47q-7.13-4.56-9.12-5.9-1.13-.76-.95-3.9 6.62 4.58 12.32 8.25 2.91 1.87 5.51-.08 5.49-4.13 11.79-8.91Z"/><path fill="#faf9f7" d="M289.02 174.76q-1.07-.12-1.74-.56-9.32-6.08-18.67-12.08-1.99-1.28-3.28.13-.2-2.22 1.45-2.5 1.24-.21 2.97.95 9.45 6.36 19.02 12.48.56.35.66 1.03.03.17-.41.55Z"/><path fill="#77bef2" d="m289.02 174.76 1.68.45q.28.35 1 .52-.46-.27-.73.15a.32.31 55.4 0 0-.04.24q.51 2.5.03 4.11-1.89 6.37-3.86 12.71l-1 .42q-16.05-10.7-21.93-14.26-3.41-2.07-2.38-5.57 1.7-5.76 3.54-11.28 1.29-1.41 3.28-.13 9.35 6 18.67 12.08.67.44 1.74.56Zm-22.84-2.25q-.96 2.41 1.15 3.92 3.19 2.28 9.34 5.31a1.48 1.43-37.4 0 0 .95.11q2.06-.44 1.99-2.09.17-1.79-1.31-2.83-4.08-2.84-6.9-4.61-1.87-1.17-3.05-1.63c-1.42-.57-2.17.49-2.17 1.82Z"/><path fill="#fed384" d="m170.22 173-12.66 8.93a1.64 1.63-63 0 1-.91.3q-1.42.03-3.46-1.42-2.56-1.82-12.74-8.04-.74-1.34 1.18-2.64 5.54-3.74 11.21-7.85a2.19 2.18-45.1 0 1 2.56-.01q7.12 5.09 14.35 9.49.67.41.47 1.24Zm-17.74-1.54a.63.63 0 0 0-.16 1.14l3.68 2.31a2.78 2.77-45.8 0 0 3.04-.05l1.2-.82a.84.84 0 0 0-.02-1.41l-3.2-2.01a1.46 1.45 52.7 0 0-1.17-.16l-3.37 1ZM128 172.25q-6.93 4.65-12.68 8.82-2.24 1.62-3.88.54-6.48-4.22-13.25-8.05-.33-1.47.54-2.09 5.92-4.3 11.15-8.19a2.94 2.94 0 0 1 3.28-.15l14.84 9.12Zm-20.13 1.33q2.88 1.52 3.9 3.08a.68.67 53.3 0 0 1 .15q2.02-1.66 2.15-3.73a1.15 1.15 0 0 0-1.29-1.22l-5.57.68a.56.55 55.5 0 0-.19 1.04Z"/><path fill="#faf9f7" d="m152.48 171.46 3.37-1a1.46 1.45 52.7 0 1 1.17.16l3.2 2.01a.84.84 0 0 1 .02 1.41l-1.2.82a2.78 2.77-45.8 0 1-3.04.05l-3.68-2.31a.63.63 0 0 1 .16-1.14ZM279.61 179.76l-13.43-7.25c0-1.33.75-2.39 2.17-1.82q1.18.46 3.05 1.63 2.82 1.77 6.9 4.61 1.48 1.04 1.31 2.83ZM107.87 173.58a.56.55 55.5 0 1 .19-1.04l5.57-.68a1.15 1.15 0 0 1 1.29 1.22q-.13 2.07-2.15 3.73a.68.67 53.3 0 1-1-.15q-1.02-1.56-3.9-3.08Z"/><path fill="#babff7" d="M279.61 179.76q.07 1.65-1.99 2.09a1.48 1.43-37.4 0 1-.95-.11q-6.15-3.03-9.34-5.31-2.11-1.51-1.15-3.92l13.43 7.25Z"/><path fill="#cd6a45" d="M128 172.25q-.05 3.31-1.48 4.28-6.88 4.69-11.43 8.15a3.15 3.15 0 0 1-3.61.13q-5.25-3.41-11.84-7.39-2.12-1.28-1.45-3.86 6.77 3.83 13.25 8.05 1.64 1.08 3.88-.54 5.75-4.17 12.68-8.82ZM170.22 173q1.19 3.39-.97 4.97-5.29 3.87-10.14 7.44a3.11 3.11 0 0 1-3.52.12q-7.38-4.72-14.6-9.55-1.08-.73-.54-3.21 10.18 6.22 12.74 8.04 2.04 1.45 3.46 1.42a1.64 1.63-63 0 0 .91-.3l12.66-8.93Z"/><path fill="#4945ac" d="M291.7 175.73q2.38 1.96 1.97 3.78-1.35 6.07-3.24 12.23-.51 1.66-2.22 1.94-1.01.17-1.11-.74 1.97-6.34 3.86-12.71.48-1.61-.03-4.11a.32.31 55.4 0 1 .04-.24q.27-.42.73-.15Z"/><path fill="#fed384" d="M151.34 188.28q-.22-.3-.67-.26a.57.56 23.8 0 0-.32.12l-11.7 8.45a2.9 2.9 0 0 1-3.18.15q-6.84-4.04-14.5-9.46-.65-.46-.83.17-.26-1.69.7-2.37 6.52-4.61 11.96-8.6a2.33 2.33 0 0 1 2.69-.04q7.15 4.9 14.99 9.82 1.02.65.86 2.02Zm-21.469-1.93a3.48 2.44-175.4 0 0 3.273 2.712 3.48 2.44-175.4 0 0 3.665-2.153 3.48 2.44-175.4 0 0-3.273-2.711 3.48 2.44-175.4 0 0-3.665 2.153ZM192.2 186.68l-13.15 9.4a1.74 1.67 22.9 0 1-.81.31q-1.53.15-2.89-.72-6.49-4.13-13.01-8.62-.82-.93.92-2.07 6.08-4.03 11.75-8.19a2.2 2.19 43.8 0 1 2.52-.05l14.67 9.94Zm-16.72-.92q.57 1.12 1.83 1.54a.43.43 0 0 1-.22.83l-2.96-.61a.6.6 0 0 0-.41 1.11q2.95 1.64 6.3 1.28a1.15 1.15 0 0 0 .66-1.98q-1.45-1.36-4.73-2.69a.37.37 0 0 0-.47.52Z"/><path fill="#fbefef" d="m315.65 248.48-13.07 8.95-103.63 68.18q-2.23.37-3.89 1.96a1.83 1.8 13.5 0 1-.7.42l-3.07.99c5.35-3.09 12.32-6.27 14.43-12.44q1.56-4.59 1.96-5.09 2.53-3.2 5.41-4.82a.21.21 0 0 0-.06-.39q-.69-.16-.65-.68a.17.17 0 0 0-.3-.12q-.9 1.08-3.21.72c-1.13-.18-2.58.06-3.36-1.26l.7.1q2.61 1.53 4.23.51 5.83-3.7 11.63-7.46 1.73-1.12 2.49-2.61a.77.76-53.4 0 0-.12-.85l-4.15-4.61-17.82-11.92a3.04 3.03-45.1 0 0-3.38.01l-2.1 1.43 2.45-2.49a1.05 1.01 14.5 0 1 .48-.27c1.32-.36 4.44-1.42 3.69-3.4q-.41-1.08-1.91-.52 7.34-5.03 13.1-9.28 1.49-1.1.43-4.26.05-.26-.09-.55-.1-.21-.37-.41-7.22-5.26-14.79-9.59 3.47-1.12 6.54-4.79-.28 1-.14 1.86-.44 2.11.82 3.01 7.21 5.13 15.42 10.34a1.94 1.93 43.7 0 0 2.14-.04l13.3-9.28a1.63 1.63 0 0 0 .56-.7q.28-.68.21-1.4.36-1.71-.26-3.02a1.37 1.32 4.9 0 0-.48-.55q-5.96-4-13.28-9.21c-1.83-1.31-2.83-1.61-4.9-.21q-4.2 2.85-8.36 5.72-.69-1.14-1.89-2.05 4.49-3.15 5.87-4.39.91-.82.4-2.74.07-1.42-1.36-2.33-5.22-3.35-10.46-6.83 2.1-.94 2.89-2.6 6.42 4.66 13.23 8.73 2.43 1.45 3.55 1.06a2.67 2.3-67.7 0 0 .61-.31l11.62-8.13a1.38 1.35 78.1 0 0 .56-.88q.34-2-.59-4.03l-13.79-9.31a2.07 2.05-46.2 0 0-2.39.06l-12.93 9.62q-3.14-1.06-5.38-.86 4.85-2.84 9.6-6.42c3.19-2.4 5.15-3.33 3.36-7.32q-1.19-1.42-3.48-2.58.45-2.99-1.75-5.62l75.52 49.31a.72.72 0 0 0 1.06-.35l.09-.26a.33.33 0 0 0-.13-.4l-77-50.44q.62-6.86-.3-13.99c4.17 2.4 9.07 6.01 11.95 7.9q40.52 26.63 81.09 53.19 4.77 3.12 14.15 9.99Zm-85.99-16.6q-.54 2.05.32 2.62 13.17 8.76 13.67 9.11 2.21 1.56 3.94.32 4.87-3.49 10.75-7.29 1.8-1.16 2.03-2.5.23-1.41-.33-3.39l-14.63-9.99a2.31 2.3-45.7 0 0-2.64.04l-12.62 9.09a.7.7 0 0 0-.14.14q-1.24 1.6-.35 1.85Zm23.27 14.65q-.53 2.65 1.2 3.84 7.27 4.97 15.66 11.01 2.25 2.11 5.62.27 3.81-2.09 11.47-7.52c2.79-1.97-.21-4.83-1.33-6.68q-.12-1.05-1.5-1.97-2.97-1.98-11.75-7.87c-2.76-1.85-4.57-3.72-7.43-1.58q-4.73 3.53-10.99 7.83-1.88 1.3-.95 2.67Zm-22.03 14.98q-.37 2.45 2.08 4.27 7.39 5.49 15.97 11.07 1.09.75 3.24.84a2.21 2.2-61.1 0 0 1.3-.38l12.92-8.75a2.42 2.41-28.9 0 0 .86-2.97q-.82-1.86-3.02-3.54-.23-1.04-.71-1.37-8.09-5.55-16.08-11.26a2.51 2.51 0 0 0-2.93.01q-7.42 5.4-12.51 9.08-2.07 1.5-1.12 3Zm-22.29 14.16q-.34 2.61.81 3.41 7.76 5.41 17.15 11.85-.15.59 2.02.98 1.9.35 5.11-1.73 5.44-3.5 12.07-8.24a1.83 1.82 60.3 0 0 .6-2.22q-.83-1.85-3.4-3.25.07-.9-.44-1.22-9.81-6.12-16.27-10.55c-1.75-1.2-3.64-1.58-5.25-.43q-6.92 4.98-10.88 7.74-1.16.81-1.66 1.6-.84 1.34.14 2.06Z"/><path fill="#fed384" d="m108.72 188.05-13.55 9.17a1.76 1.59-66.4 0 1-.51.23q-1.7.43-3.39-.71-9.23-6.19-11.74-7.81a.64.63 19.3 0 0-.98.47l-.08.85q-.63-2.67 1.02-3.76 6.59-4.37 12.36-8.42a2.43 2.43 0 0 1 2.82.03q6.8 4.91 13.6 9.12.34.21.45.83Zm-12.99-.62q-3-1.71-5.5-.35a1.76 1.76 0 0 0-.42 2.77q3.08 3.2 6 .06a1.74 1.43-52.4 0 0-.08-2.48Z"/><path fill="#faf9f7" d="M129.871 186.35a3.48 2.44-175.4 0 1 3.665-2.152 3.48 2.44-175.4 0 1 3.273 2.711 3.48 2.44-175.4 0 1-3.665 2.153 3.48 2.44-175.4 0 1-3.273-2.711Zm2.249.46q.71.46 1.45.34a.56.51-32.4 0 0 .26-.97q-.69-.42-1.54-.18a.47.44-35.1 0 0-.17.81ZM175.48 185.76a.37.37 0 0 1 .47-.52q3.28 1.33 4.73 2.69a1.15 1.15 0 0 1-.66 1.98q-3.35.36-6.3-1.28a.6.6 0 0 1 .41-1.11l2.96.61a.43.43 0 0 0 .22-.83q-1.26-.42-1.83-1.54Z"/><path fill="#fed384" d="M132.12 186.81a.47.44-35.1 0 1 .17-.81q.85-.24 1.54.18a.56.51-32.4 0 1-.26.97q-.74.12-1.45-.34Z"/><path fill="#faf9f7" d="M95.73 187.43a1.74 1.43-52.4 0 1 .08 2.48q-2.92 3.14-6-.06a1.76 1.76 0 0 1 .42-2.77q2.5-1.36 5.5.35Z"/><path fill="#cd6a45" d="M192.2 186.68q1.42 3.7-1.1 5.41-5.45 3.71-10.53 7.28a3.29 3.28-46.2 0 1-3.65.08l-13.97-8.87a.82.76 86.8 0 1-.25-.24q-.86-1.18-.36-3.29 6.52 4.49 13.01 8.62 1.36.87 2.89.72a1.74 1.67 22.9 0 0 .81-.31l13.15-9.4ZM151.34 188.28q.4 1.57-.04 2.83a1.61 1.59 82.2 0 1-.6.8q-6.1 4.2-10.18 7.4c-2.14 1.68-3.51 1.77-5.82.27q-9.11-5.9-13.62-9.16-1.27-.91-.94-2.97.18-.63.83-.17 7.66 5.42 14.5 9.46a2.9 2.9 0 0 0 3.18-.15l11.7-8.45a.57.56 23.8 0 1 .32-.12q.45-.04.67.26ZM108.72 188.05q.78 2.79-1.65 4.51-10.5 7.46-11.26 8.01a2.25 2.16 19.7 0 1-.85.38q-1.91.43-3.94-.94-6.39-4.31-11.16-7.86-1.1-.81-1.39-1.9l.08-.85a.64.63 19.3 0 1 .98-.47q2.51 1.62 11.74 7.81 1.69 1.14 3.39.71a1.76 1.59-66.4 0 0 .51-.23l13.55-9.17Z"/><path fill="#fed384" d="M171.46 202.16q-.01-.3-.14-.39-.42-.28-.84.03-5.38 3.95-10.85 7.94-2.21 1.62-4.4.25-5.91-3.7-11.67-7.25-.46-.28-.9.05-.25.19-.15.58-.6-1.77.38-2.45 6.22-4.39 12.51-9.23a2.04 2.02 42.6 0 1 2.36-.09q6.7 4.4 13.24 8.31.98.59.46 2.25Zm-15.65 2.38q1.47-.06 3-2.47a1.5 1.49-57.8 0 0-.47-2.07q-1.76-1.1-2.76-1.06-.99.04-2.66 1.28a1.5 1.49 53.1 0 0-.3 2.11q1.73 2.27 3.19 2.21ZM210.97 199.15q2.29 1.16 3.48 2.58l-12.98 9.63a1.48 1.48 0 0 1-1.65.07l-14.69-9.16q-.82-1.35 1.08-2.58 6.02-3.94 11.51-7.7a2.19 2.18-45.4 0 1 2.45-.02l10.8 7.18Zm-11.09.63a1.01.99-47 0 0-1.14.05l-1.59 1.19a.86.85 49.1 0 0-.09 1.29q2.17 2.18 5.15 3.21a.95.95 0 0 0 1.14-.43q.67-1.2 1.83-1.34a.3.3 0 0 0 .13-.55l-5.43-3.42Z"/><path fill="#fba4a7" d="M91.06 204.71q-6.94 4.27-13.45 8.97c-1.67 1.21-2.69 1.53-4.42.4q-11.38-7.43-16.74-11.13 4.43-3.92 12.92-9.6 3.11-2.09 5.93-.19 7.5 5.04 14.89 10.2 1.15.79.87 1.35Zm-13.246 2.834a.9.9 0 0 0-.273-1.243l-8.24-5.27a.9.9 0 0 0-1.243.274l-.032.05a.9.9 0 0 0 .273 1.244l8.24 5.27a.9.9 0 0 0 1.243-.274l.032-.05Z"/><path fill="#fed384" d="M133.23 203.62q-6.61 4.2-12.71 8.9-1.97 1.52-4.7-.09-6.92-4.08-14.99-9.72l14.74-10.04a1.87 1.86-44.4 0 1 2.14.02q6.79 4.83 14.1 9.14.55.32.97.76.74.77.45 1.03Zm-17.7-.65-3.1-1.15a.6.6 0 0 0-.64.99c1.85 1.88 5.77 3.99 7.41.49a.96.95 35.8 0 0-.18-1.08q-1.6-1.65-3.65-2.44a.58.58 0 0 0-.67.89l1.28 1.7a.39.39 0 0 1-.45.6Z"/><path fill="#faf9f7" d="M155.58 198.94q1-.04 2.76 1.06a1.5 1.49-57.8 0 1 .47 2.07q-1.53 2.41-3 2.47-1.46.06-3.19-2.21a1.5 1.49 53.1 0 1 .3-2.11q1.67-1.24 2.66-1.28Zm-1.142 2.702a1.22.93-163.9 0 0 .914 1.232 1.22.93-163.9 0 0 1.43-.556 1.22.93-163.9 0 0-.914-1.232 1.22.93-163.9 0 0-1.43.556Z"/><path fill="#fbefef" d="M115.53 202.97a.39.39 0 0 0 .45-.6l-1.28-1.7a.58.58 0 0 1 .67-.89q2.05.79 3.65 2.44a.96.95 35.8 0 1 .18 1.08c-1.64 3.5-5.56 1.39-7.41-.49a.6.6 0 0 1 .64-.99l3.1 1.15ZM205.18 203.75q-1.16.14-1.83 1.34a.95.95 0 0 1-1.14.43q-2.98-1.03-5.15-3.21a.86.85 49.1 0 1 .09-1.29l1.59-1.19a1.01.99-47 0 1 1.14-.05l5.43 3.42a.3.3 0 0 1-.13.55Z"/><rect width="11.58" height="1.86" x="-5.79" y="-.93" fill="#faf9f7" rx=".9" transform="rotate(32.6 -313.122 226.908)"/><ellipse fill="#fed384" rx="1.22" ry=".93" transform="rotate(-163.9 92.088 89.986)"/><path fill="#cd6a45" d="M171.46 202.16q.56 1.89-.87 2.92-8.72 6.34-11.62 8.46a2.85 2.85 0 0 1-3.23.1q-6.83-4.39-11.61-7.46-1.81-1.17-1.62-2.81-.1-.39.15-.58.44-.33.9-.05 5.76 3.55 11.67 7.25 2.19 1.37 4.4-.25 5.47-3.99 10.85-7.94.42-.31.84-.03.13.09.14.39ZM214.45 201.73c1.79 3.99-.17 4.92-3.36 7.32q-4.75 3.58-9.6 6.42-10.69-6.3-15.84-10.37-.7-.56-.52-2.83l14.69 9.16a1.48 1.48 0 0 0 1.65-.07l12.98-9.63ZM133.23 203.62q.53 1.79.13 2.93a1.48 1.43-10.3 0 1-.49.68l-12.16 9.38a1.98 1.98 0 0 1-.9.39q-1.92.31-4.74-1.56-6.49-4.31-13.01-8.45a1.19 1.18-79.4 0 1-.52-.76l-.71-3.52q8.07 5.64 14.99 9.72 2.73 1.61 4.7.09 6.1-4.7 12.71-8.9ZM56.45 202.95q5.36 3.7 16.74 11.13c1.73 1.13 2.75.81 4.42-.4q6.51-4.7 13.45-8.97.53 2.56-1.33 3.75-1.46.93-12.65 8.91-1.5 1.07-3.53-.18-3.87-2.39-14.98-9.77-1.74-1.16-2.12-4.47Z"/><path fill="#fed384" d="m195.29 216.48-13.52 9.37a2.81 2.8-45.4 0 1-3.17.03l-13.79-9.17q-.76-1.35 1.25-2.65 5.21-3.38 12.6-8.42a2.15 2.14-44.8 0 1 2.41 0q4.68 3.19 12.89 9.16 1.42 1.03 1.33 1.68Zm-19.448-.396a3.06 2.41-178.2 0 0 2.982 2.505 3.06 2.41-178.2 0 0 3.134-2.313 3.06 2.41-178.2 0 0-2.982-2.505 3.06 2.41-178.2 0 0-3.135 2.313Z"/><path fill="#f894af" d="m235.98 215.96-13.05 9.29a2.36 2.36 0 0 1-2.62.09q-6.38-3.92-12.84-8.14-.39-.26-.6.35v-1.22l12.93-9.62a2.07 2.05-46.2 0 1 2.39-.06l13.79 9.31Zm-16.18 1.19-1.65.24a1 .99 88.6 0 0-.85.9v.03a.78.78 0 0 0 .83.78l5.09-.3a.95.95 0 0 0 .48-1.73l-5.05-3.45a.69.69 0 0 0-.92.14l-.25.3a.59.59 0 0 0 .12.86l2.35 1.6a.35.35 0 0 1-.15.63Z"/><path fill="#fed384" d="M171.6 230.03q-.58-.56-1.57.06-6.57 4.11-12.48 8.59a1.56 1.49 27.4 0 1-1.03.3q-1.09-.09-2.61-1.08-8.71-5.66-13.06-8.64a.75.75 0 0 1 .01-1.24l14.32-9.7a.49.48-56.2 0 0-.17-.88l-.54-.11a2.21 2.17 34.5 0 0-1.58.28l-14.44 9.02a.96.94-54.6 0 1-.73.13q-1.72-.39-3.26-1.48-4.74-3.35-9.85-6.48-.42-.73.99-1.72 9.73-6.8 13.09-9.09a2.09 2.09 0 0 1 2.41.04q6.58 4.82 9.44 6.44c7.15 4.05 13.01 8.85 20.22 13.36.8.51 1.09 1.3.84 2.2Zm-30.05-12.62c-1.96-1.75-5.57-3.07-7.46-.5a1.69 1.61 37.3 0 0 .36 2.27q1.75 1.36 3.57 1.35a.89.89 0 0 0 .51-.16l2.95-2a.61.6-41.1 0 0 .07-.96Zm13.38 12.06-2.06-1.3a.88.88 0 0 0-1.21 1.21c1.29 2.05 4.92 3.37 6.3.44q.72-1.53.01-2.2-.82-.76-2.28-.9a.74.73-29.5 0 0-.39 1.39q.68.32.55.96a.61.61 0 0 1-.92.4ZM114.86 220.23q-6.76 4.63-13.27 9.62-1.97 1.52-3.89.28-11.38-7.34-14.49-9.23-1.31-1.43 1.25-3.43 6.19-4.81 11.72-8.52a2.53 2.52-44.6 0 1 2.84.01l14.78 10.09a1.49 1.43 2 0 1 .41.42q.44.66.65.76Zm-18.44 1.59q-1.03.81-1.03 1.52a1.18 1.14-24 0 0 2.03.74q1.01-1.05 4.1-4.47a1.22 1.22 0 0 0-.72-2.02q-2.27-.34-4.75 1.18a.32.32 0 0 1-.48-.34l.32-1.58a1.24 1.23 88.8 0 0-1.51-1.45q-2.99.74-4.73 3.21a.9.78-60.4 0 0 .26 1.29q.36.15.9-.11.21-.11 2.02-1.81a.37.37 0 0 1 .61.35l-.51 2.48a.93.93 0 0 0 .94 1.12q.81-.02 1.98-.56.01-.01.25.01.32.01.39.17a.23.23 0 0 1-.07.27Z"/><ellipse fill="#faf9f7" rx="3.06" ry="2.41" transform="rotate(-178.2 91.148 106.685)"/><path fill="#faf9f7" d="m219.95 216.52-2.35-1.6a.59.59 0 0 1-.12-.86l.25-.3a.69.69 0 0 1 .92-.14l5.05 3.45a.95.95 0 0 1-.48 1.73l-5.09.3a.78.78 0 0 1-.83-.78v-.03a1 .99 88.6 0 1 .85-.9l1.65-.24a.35.35 0 0 0 .15-.63ZM96.49 221.55q-.07-.16-.39-.17-.24-.02-.25-.01-1.17.54-1.98.56a.93.93 0 0 1-.94-1.12l.51-2.48a.37.37 0 0 0-.61-.35q-1.81 1.7-2.02 1.81-.54.26-.9.11a.9.78-60.4 0 1-.26-1.29q1.74-2.47 4.73-3.21a1.24 1.23 88.8 0 1 1.51 1.45l-.32 1.58a.32.32 0 0 0 .48.34q2.48-1.52 4.75-1.18a1.22 1.22 0 0 1 .72 2.02q-3.09 3.42-4.1 4.47a1.18 1.14-24 0 1-2.03-.74q0-.71 1.03-1.52a.23.23 0 0 0 .07-.27ZM141.48 218.37l-2.95 2a.89.89 0 0 1-.51.16q-1.82.01-3.57-1.35a1.69 1.61 37.3 0 1-.36-2.27c1.89-2.57 5.5-1.25 7.46.5a.61.6-41.1 0 1-.07.96Zm-5.36-1.18a1.62.71-165.7 0 0 1.395 1.088 1.62.71-165.7 0 0 1.745-.288 1.62.71-165.7 0 0-1.395-1.088 1.62.71-165.7 0 0-1.745.288Z"/><path fill="#a95873" d="M235.98 215.96q.93 2.03.59 4.03a1.38 1.35 78.1 0 1-.56.88L224.39 229a2.67 2.3-67.7 0 1-.61.31q-1.12.39-3.55-1.06-6.81-4.07-13.23-8.73l-.13-1.97q.21-.61.6-.35 6.46 4.22 12.84 8.14a2.36 2.36 0 0 0 2.62-.09l13.05-9.29Z"/><ellipse fill="#fed384" rx="1.62" ry=".71" transform="rotate(-165.7 82.493 100.159)"/><path fill="#cd6a45" d="M195.29 216.48q1.03 3.73-.49 4.8-6.52 4.62-11.92 8.36-1.62 1.13-3.65-.15-3.27-2.06-13.23-9-1.8-1.25-1.19-3.78l13.79 9.17a2.81 2.8-45.4 0 0 3.17-.03l13.52-9.37Z"/><path fill="#f4c6d1" d="m17.67 217.16.29 4.75a.78.65-58.3 0 0 .03.21q1.02 3.53 3.94 5.46 76.72 50.65 150.39 100.32c5.02 3.38 12.42 2.83 18.97 1.08l3.07-.99a1.83 1.8 13.5 0 0 .7-.42q1.66-1.59 3.89-1.96l-9.01 5.72q-6.91 6.03-15.76 4.2-2.53-1.04-6.2-3.53Q106.4 290.19 18 231.5q-3.94-2.61-4.95-8.28.69-3.73 4.62-6.06Z"/><path fill="#cd6a45" d="M171.6 230.03q.42 2.05-1.17 3.17-7.48 5.26-11.72 8.41a3.09 3.08 42.4 0 1-3.45.15q-15.69-9.61-30.43-20.58-.8-.59-.22-2.38 5.11 3.13 9.85 6.48 1.54 1.09 3.26 1.48a.96.94-54.6 0 0 .73-.13l14.44-9.02a2.21 2.17 34.5 0 1 1.58-.28l.54.11a.49.48-56.2 0 1 .17.88l-14.32 9.7a.75.75 0 0 0-.01 1.24q4.35 2.98 13.06 8.64 1.52.99 2.61 1.08a1.56 1.49 27.4 0 0 1.03-.3q5.91-4.48 12.48-8.59.99-.62 1.57-.06Z"/><path fill="#f894af" d="m260.04 230.75-13.1 9.42a3.04 3.03 42.7 0 1-3.33.13l-13.95-8.42q-.89-.25.35-1.85a.7.7 0 0 1 .14-.14l12.62-9.09a2.31 2.3-45.7 0 1 2.64-.04l14.63 9.99Zm-10.262.346a.84.84 0 0 0-.26-1.16l-5.766-3.644a.84.84 0 0 0-1.158.262l-.032.05a.84.84 0 0 0 .26 1.16l5.766 3.643a.84.84 0 0 0 1.158-.26l.032-.051Zm-2.018.504-6.51-4.25a.28.28 0 0 0-.39.08l-.22.35a1.51 1.09 33.1 0 0 .67 1.73l4.45 2.91a1.51 1.09 33.1 0 0 1.86-.09l.23-.34a.28.28 0 0 0-.09-.39Z"/><path fill="#cd6a45" d="M114.86 220.23q.82 2.48-.44 3.42-6.92 5.16-12.97 9.52-2.18 1.57-4.39.05-.08-.05-13.12-8.9-1.04-.71-.73-3.42 3.11 1.89 14.49 9.23 1.92 1.24 3.89-.28 6.51-4.99 13.27-9.62Z"/><path fill="#fba4a7" d="M204.11 222.12q5.24 3.48 10.46 6.83 1.43.91 1.36 2.33-.5-.62-1.73.18-6.36 4.18-11.97 8.47a2.11 2.1 42.5 0 1-2.42.1l-12.93-8.24q-.98-.8.6-2.08 2.71-2.21 12.49-8.94a1.55 1.52-55.2 0 1 1.21-.23q1.62.35 2.93 1.58Zm-1.06 7.83-4.25-2.4a.71.71 0 0 0-.87 1.11q.01.01 1.26.97a.68.67-42.2 0 1-.06 1.11l-1.69 1.06a.74.74 0 0 0 .38 1.37l.54.01a1.12 1.12 0 0 0 .58-.14l4.12-2.39a.41.4 44.6 0 0-.01-.7Z"/><path fill="#6f6ed4" d="M13.05 223.22q1.01 5.67 4.95 8.28 88.4 58.69 149.98 100.5 3.67 2.49 6.2 3.53-.44 4.33-3.98 6.02-76.68-51.05-153.3-102.2-4.13-2.75-3.99-8.38l-.02-1.5-.03-3.26.09-1.67q.23-.66.1-1.32Z"/><path fill="#4945ac" d="m12.95 224.54-.09 1.67.09-1.67Z"/><path fill="#fed384" d="M170.64 258.07q-6.73 4.01-12.95 8.65c-2 1.49-3.32.99-5.19-.23q-23.33-15.22-46.64-30.6-.52-.35.73-1.28 9.28-6.85 12.86-9.47a2.11 2.09 43.5 0 1 2.39-.05q25.46 16.76 46.88 30.94 1.68 1.11 1.92 2.04Z"/><rect width="8.5" height="1.74" x="-4.25" y="-.87" fill="#faf9f7" rx=".84" transform="rotate(32.3 -272.055 539.47)"/><path fill="#faf9f7" d="M155.85 229.07q.13-.64-.55-.96a.74.73-29.5 0 1 .39-1.39q1.46.14 2.28.9.71.67-.01 2.2c-1.38 2.93-5.01 1.61-6.3-.44a.88.88 0 0 1 1.21-1.21l2.06 1.3a.61.61 0 0 0 .92-.4ZM203.05 229.95a.41.4 44.6 0 1 .01.7l-4.12 2.39a1.12 1.12 0 0 1-.58.14l-.54-.01a.74.74 0 0 1-.38-1.37l1.69-1.06a.68.67-42.2 0 0 .06-1.11q-1.25-.96-1.26-.97a.71.71 0 0 1 .87-1.11l4.25 2.4ZM247.76 231.6a.28.28 0 0 1 .09.39l-.23.34a1.51 1.09 33.1 0 1-1.86.09l-4.45-2.91a1.51 1.09 33.1 0 1-.67-1.73l.22-.35a.28.28 0 0 1 .39-.08l6.51 4.25Z"/><path fill="#4945ac" d="m12.89 229.47.02 1.5-.02-1.5Z"/><path fill="#a95873" d="M215.93 231.28q.51 1.92-.4 2.74-1.38 1.24-5.87 4.39-3.28 2.34-6.62 4.73-1.39 1-3.74-.4-7.4-4.38-12.15-8.15-.9-.72-.27-2.8l12.93 8.24a2.11 2.1 42.5 0 0 2.42-.1q5.61-4.29 11.97-8.47 1.23-.8 1.73-.18ZM260.04 230.75q.56 1.98.33 3.39-.23 1.34-2.03 2.5-5.88 3.8-10.75 7.29-1.73 1.24-3.94-.32-.5-.35-13.67-9.11-.86-.57-.32-2.62l13.95 8.42a3.04 3.03 42.7 0 0 3.33-.13l13.1-9.42Z"/><path fill="#fed384" d="M192.8 243.56q-6.17 3.9-11.94 8.31c-1.84 1.42-3.21 1.97-5.22.75q-6.29-3.81-12.75-7.55-.4-.48.82-1.34 6.73-4.71 13.23-9.43a2.19 2.19 0 0 1 2.54-.03l13.32 9.29Zm-19.634.315a3.56 2.73-174.6 0 0 3.287 3.053 3.56 2.73-174.6 0 0 3.801-2.383 3.56 2.73-174.6 0 0-3.287-3.053 3.56 2.73-174.6 0 0-3.801 2.383Z"/><path fill="#f894af" d="M238.83 247.73q.15-1-.1-1.59a.67.67 0 0 0-.99-.28l-12.88 8.73a3.5 3.49-46 0 1-3.82.07q-5.09-3.2-14.06-9.43-.39-.27-.6.57-.14-.86.14-1.86l5.03-3.48q4.16-2.87 8.36-5.72c2.07-1.4 3.07-1.1 4.9.21q7.32 5.21 13.28 9.21a1.37 1.32 4.9 0 1 .48.55q.62 1.31.26 3.02Zm-22.07-4.81a3.73 2.62-164.3 0 0 2.881 3.532 3.73 2.62-164.3 0 0 4.3-1.513 3.73 2.62-164.3 0 0-2.882-3.531 3.73 2.62-164.3 0 0-4.3 1.513Z"/><path fill="#fba4a7" d="m285.55 247.45-.07 2.07q-.09-1.93-1.07-2.01a.51.48-58.1 0 0-.3.08c-4.55 3.2-8.86 5.93-12.49 8.73q-1.69 1.3-3.06.43-7.81-4.95-15.63-10.22-.93-1.37.95-2.67 6.26-4.3 10.99-7.83c2.86-2.14 4.67-.27 7.43 1.58q8.78 5.89 11.75 7.87 1.38.92 1.5 1.97Zm-11.011 1.488a1.38 1.38 0 0 0-.446-1.9l-7.139-4.427a1.38 1.38 0 0 0-1.9.446l-.053.085a1.38 1.38 0 0 0 .446 1.9l7.139 4.427a1.38 1.38 0 0 0 1.9-.446l.053-.085Z"/><path fill="#cd6a45" d="M170.64 258.07c.23 1.64.1 2.71-1.34 3.73q-4.98 3.53-11.65 8.32-2.16 1.54-4.46-.01-1.8-1.22-46.86-31.17-1.34-.89-.47-3.05 23.31 15.38 46.64 30.6c1.87 1.22 3.19 1.72 5.19.23q6.22-4.64 12.95-8.65Z"/><path fill="#a44a96" d="M323.58 241.05c-.31 5.4 1.24 10.73-3.3 15.41q-.62-.27-.67.55l-126.57 82.71 5.62-4.9a.27.26-81.1 0 0-.31-.43l-1.43.89a.42.41-36.8 0 1-.53-.07q-2.55-2.82-6.45-3.88l9.01-5.72 103.63-68.18 12.03-7.13a3.91 3.9 6.4 0 0 .78-.62l8.19-8.63Z"/><path fill="#faf9f7" d="M216.76 242.92a3.73 2.62-164.3 0 1 4.299-1.512 3.73 2.62-164.3 0 1 2.882 3.531 3.73 2.62-164.3 0 1-4.3 1.513 3.73 2.62-164.3 0 1-2.882-3.531Zm4.526.869a1.22.83-11.4 0 0-1.36-.573 1.22.83-11.4 0 0-1.032 1.055 1.22.83-11.4 0 0 1.36.573 1.22.83-11.4 0 0 1.032-1.055ZM173.166 243.875a3.56 2.73-174.6 0 1 3.8-2.383 3.56 2.73-174.6 0 1 3.288 3.053 3.56 2.73-174.6 0 1-3.8 2.383 3.56 2.73-174.6 0 1-3.288-3.053Zm2.646-.266a1.22.79-154.2 0 0 .754 1.242 1.22.79-154.2 0 0 1.442-.18 1.22.79-154.2 0 0-.754-1.242 1.22.79-154.2 0 0-1.442.18Z"/><rect width="11.16" height="2.86" x="-5.58" y="-1.43" fill="#faf9f7" rx="1.38" transform="rotate(31.8 -296.98 596.537)"/><ellipse fill="#fed384" rx="1.22" ry=".79" transform="rotate(-154.2 116.413 101.811)"/><ellipse fill="#f4c6d1" rx="1.22" ry=".83" transform="rotate(-11.4 1332.478 -980.494)"/><path fill="#cd6a45" d="M192.8 243.56q.94 2.4-1.2 4.03-7.11 5.4-11.33 8.48a2.69 2.65 16.3 0 1-.65.35q-1.83.69-4.06-.75-10.39-6.68-11.95-7.78-1.08-.76-.72-2.82 6.46 3.74 12.75 7.55c2.01 1.22 3.38.67 5.22-.75q5.77-4.41 11.94-8.31Z"/><path fill="#fba4a7" d="M144.08 270.39q-6.36 5.45-12.78 10.67-6.02 4.9-12.61.27-8.83-6.19-24.9-15.32-2.65-1.5-5.64-2.36l-5.86-3.59q.13-1.39 1.29-2.24 9.02-6.59 17.92-13.21a2.4 2.4 0 0 1 2.74-.09l39.84 25.87Z"/><path fill="#a95873" d="M238.83 247.73q.07.72-.21 1.4a1.63 1.63 0 0 1-.56.7l-13.3 9.28a1.94 1.93 43.7 0 1-2.14.04q-8.21-5.21-15.42-10.34-1.26-.9-.82-3.01.21-.84.6-.57 8.97 6.23 14.06 9.43a3.5 3.49-46 0 0 3.82-.07l12.88-8.73a.67.67 0 0 1 .99.28q.25.59.1 1.59ZM285.48 249.52q.46 1.8-1.37 3.1-7.2 5.12-14.32 8.76-8.39-6.04-15.66-11.01-1.73-1.19-1.2-3.84 7.82 5.27 15.63 10.22 1.37.87 3.06-.43c3.63-2.8 7.94-5.53 12.49-8.73a.51.48-58.1 0 1 .3-.08q.98.08 1.07 2.01Z"/><path fill="#f4c6d1" d="M269.79 261.38q7.12-3.64 14.32-8.76 1.83-1.3 1.37-3.1l.07-2.07c1.12 1.85 4.12 4.71 1.33 6.68q-7.66 5.43-11.47 7.52-3.37 1.84-5.62-.27Z"/><path fill="#f894af" d="M199.98 248.73q7.57 4.33 14.79 9.59.27.2.37.41.14.29.09.55-.51.04-.74.2-5.64 4.05-11.2 8.31c-1.77 1.35-2.91 1.13-4.64.05q-6.29-3.9-12.22-7.57a.35.34-56.3 0 0-.46.1q-.09.13-.13.34-.59-1.35.16-1.95 3.77-3.05 13.98-10.03Zm-1.41 8.08a1.23.81-158 0 0 .837 1.211 1.23.81-158 0 0 1.443-.29 1.23.81-158 0 0-.837-1.212 1.23.81-158 0 0-1.443.29Zm-3.152 2.879a2.53.91-163.2 0 0 2.159 1.602 2.53.91-163.2 0 0 2.685-.14 2.53.91-163.2 0 0-2.159-1.602 2.53.91-163.2 0 0-2.685.14Z"/><path fill="#fba4a7" d="M264.25 262.05q.05.38-.11.72-.56-.94-1.88-.02-6.25 4.35-12.09 8.75a3.18 3.17-46.9 0 1-3.64.13l-15.63-10.12q-.95-1.5 1.12-3 5.09-3.68 12.51-9.08a2.51 2.51 0 0 1 2.93-.01q7.99 5.71 16.08 11.26.48.33.71 1.37Zm-12.944 1.08a1.29 1.29 0 0 0-.398-1.78l-6.585-4.18a1.29 1.29 0 0 0-1.78.398l-.13.202a1.29 1.29 0 0 0 .399 1.78l6.585 4.18a1.29 1.29 0 0 0 1.78-.398l.13-.202Z"/><ellipse fill="#fbefef" rx="1.23" ry=".81" transform="rotate(-158 124.86 109.225)"/><path fill="#24227b" d="m320.28 256.46-.67.55q.05-.82.67-.55Z"/><rect width="10.38" height="2.82" x="-5.19" y="-1.41" fill="#faf9f7" rx="1.29" transform="rotate(32.4 -324.807 555.074)"/><ellipse fill="#faf9f7" rx="2.53" ry=".91" transform="rotate(-163.2 118.148 115.603)"/><path fill="#a95873" d="M215.23 259.28q1.06 3.16-.43 4.26-5.76 4.25-13.1 9.28-7.48-3.84-14.97-9.3-1.33-.97-.89-2.81.04-.21.13-.34a.35.34-56.3 0 1 .46-.1q5.93 3.67 12.22 7.57c1.73 1.08 2.87 1.3 4.64-.05q5.56-4.26 11.2-8.31.23-.16.74-.2Z"/><path fill="#a44a96" d="M88.15 263.65q17.61 11.93 35.35 23.62c2.13 1.4 4.09 1.18 6.16-.43q8.56-6.62 17.05-13.2 1.69 1.42.2 2.76-4.75 4.32-8.85 7.38-2.67 2-4.16 3.47c-3.94 3.9-5.69 6.47-10.86 2.8q-30.53-21.68-38.35-26.98-2.27-1.53-2.4-3.01l5.86 3.59Z"/><path fill="#fed384" d="M194.34 272.55q-6.84 4.81-12.96 9.63-2.09 1.64-4.57.01-6.79-4.48-13.82-9.04-.72-.64.97-1.91 6.12-4.61 11.88-9.16a2.44 2.43-47 0 1 2.89-.11l15.61 10.58Zm-12.507 3.141a1.3 1.3 0 0 0-.382-1.798l-6.391-4.15a1.3 1.3 0 0 0-1.798.382l-.055.084a1.3 1.3 0 0 0 .382 1.798l6.391 4.15a1.3 1.3 0 0 0 1.798-.382l.055-.084Z"/><path fill="#a95873" d="M264.14 262.77q.59 2.34-.43 4.08a1.86 1.84-1.9 0 1-.55.58l-14.21 9.42q-8.58-5.58-15.97-11.07-2.45-1.82-2.08-4.27l15.63 10.12a3.18 3.17-46.9 0 0 3.64-.13q5.84-4.4 12.09-8.75 1.32-.92 1.88.02Z"/><path fill="#f4c6d1" d="m248.95 276.85 14.21-9.42a1.86 1.84-1.9 0 0 .55-.58q1.02-1.74.43-4.08.16-.34.11-.72 2.2 1.68 3.02 3.54a2.42 2.41-28.9 0 1-.86 2.97l-12.92 8.75a2.21 2.2-61.1 0 1-1.3.38q-2.15-.09-3.24-.84Z"/><path fill="#f894af" d="M144.08 270.39q1.77 1.28 2.63 3.25-8.49 6.58-17.05 13.2c-2.07 1.61-4.03 1.83-6.16.43q-17.74-11.69-35.35-23.62 2.99.86 5.64 2.36 16.07 9.13 24.9 15.32 6.59 4.63 12.61-.27 6.42-5.22 12.78-10.67Z"/><path fill="#fba4a7" d="M242.97 276.47q.01.5-.32 1.02-.09-.89-.53-1.2-.45-.3-1.23.23-6.25 4.24-12.15 9.03-1.88 1.53-4.6-.2-7.63-4.82-15.53-9.68-.98-.72-.14-2.06.5-.79 1.66-1.6 3.96-2.76 10.88-7.74c1.61-1.15 3.5-.77 5.25.43q6.46 4.43 16.27 10.55.51.32.44 1.22Zm-16.23-1.21 1.14-.86a1.22 1.22 0 0 0-1.38-2l-2.12 1.35a1.02 1.01 43.5 0 1-1.04.02q-.51-.29-1.33-.48a.92.91-13.3 0 0-.92 1.48q.22.26.31.82.06.35-.5.68-1.05.6-1.27 1.44a.52.52 0 0 0 .48.66q1.26.07 2.31-.78c.97-.78 1.75-.22 2.45.41a1.51 1.4 32 0 0 2.37-.45q.34-.9-.43-1.33a.58.57 41 0 1-.07-.96Z"/><rect width="10.22" height="2.7" x="-5.11" y="-1.35" fill="#faf9f7" rx="1.3" transform="rotate(33 -371.972 436.124)"/><path fill="#faf9f7" d="M226.81 276.22q.77.43.43 1.33a1.51 1.4 32 0 1-2.37.45c-.7-.63-1.48-1.19-2.45-.41q-1.05.85-2.31.78a.52.52 0 0 1-.48-.66q.22-.84 1.27-1.44.56-.33.5-.68-.09-.56-.31-.82a.92.91-13.3 0 1 .92-1.48q.82.19 1.33.48a1.02 1.01 43.5 0 0 1.04-.02l2.12-1.35a1.22 1.22 0 0 1 1.38 2l-1.14.86a.58.57 41 0 0 .07.96Z"/><path fill="#cd6a45" d="M194.34 272.55q1.02 4.41-1.87 6.39-5.77 3.94-10.88 7.59a2.82 2.81-45.8 0 1-3.21.05q-7.01-4.75-13.85-9.38-2.12-1.44-1.54-4.05 7.03 4.56 13.82 9.04 2.48 1.63 4.57-.01 6.12-4.82 12.96-9.63Z"/><path fill="#a95873" d="M242.65 277.49q.63 2.55-.73 3.68-6.14 5.1-15.35 9.76-9.39-6.44-17.15-11.85-1.15-.8-.81-3.41 7.9 4.86 15.53 9.68 2.72 1.73 4.6.2 5.9-4.79 12.15-9.03.78-.53 1.23-.23.44.31.53 1.2Z"/><path fill="#f4c6d1" d="M226.57 290.93q9.21-4.66 15.35-9.76 1.36-1.13.73-3.68.33-.52.32-1.02 2.57 1.4 3.4 3.25a1.83 1.82 60.3 0 1-.6 2.22q-6.63 4.74-12.07 8.24-3.21 2.08-5.11 1.73-2.17-.39-2.02-.98Z"/><path fill="#fba4a7" d="M220.29 289.98q.42 1.52.17 2.24-.14-1.26-1.1-1.2a.61.54-61.3 0 0-.3.11l-12.66 9.5a1.38 1.36-46.9 0 1-1.57.06l-17.78-11.34q-1.24-2.06 1.12-3.67 4.48-3.06 8.82-6.18l2.1-1.43a3.04 3.03-45.1 0 1 3.38-.01l17.82 11.92Zm-13.333 1.72a1.24 1.24 0 0 0-.37-1.714l-6.927-4.464a1.24 1.24 0 0 0-1.714.37l-.043.068a1.24 1.24 0 0 0 .37 1.714l6.927 4.464a1.24 1.24 0 0 0 1.714-.37l.043-.068Z"/><rect width="10.72" height="2.56" x="-5.36" y="-1.28" fill="#faf9f7" rx="1.24" transform="rotate(32.8 -389.465 488.314)"/><path fill="#a95873" d="M220.46 292.22q.93 2.65-.73 3.76-6.05 4.06-11.88 8.38-.57.43-1.64.64l-.7-.1c-.34-.19-.79-.3-1.08-.51q-8.23-5.97-16.72-11.58-1.04-.68-.66-3.46l17.78 11.34a1.38 1.36-46.9 0 0 1.57-.06l12.66-9.5a.61.54-61.3 0 1 .3-.11q.96-.06 1.1 1.2Z"/><path fill="#f4c6d1" d="M206.21 305q1.07-.21 1.64-.64 5.83-4.32 11.88-8.38 1.66-1.11.73-3.76.25-.72-.17-2.24l4.15 4.61a.77.76-53.4 0 1 .12.85q-.76 1.49-2.49 2.61-5.8 3.76-11.63 7.46-1.62 1.02-4.23-.51Z"/><path fill="#735fb6" d="M193.04 339.72q-5.27 3.85-7.85 4.71-8.15 2.71-14.99-2.88 3.54-1.69 3.98-6.02 8.85 1.83 15.76-4.2 3.9 1.06 6.45 3.88a.42.41-36.8 0 0 .53.07l1.43-.89a.27.26-81.1 0 1 .31.43l-5.62 4.9Z"/></svg>